<?xml version="1.0" encoding="utf-8"?>
<!-- Generator: Adobe Illustrator 16.0.0, SVG Export Plug-In . SVG Version: 6.00 Build 0)  -->
<!DOCTYPE svg PUBLIC "-//W3C//DTD SVG 1.1//EN" "http://www.w3.org/Graphics/SVG/1.1/DTD/svg11.dtd">
<svg version="1.1" id="Layer_1" xmlns="http://www.w3.org/2000/svg" xmlns:xlink="http://www.w3.org/1999/xlink" x="0px" y="0px"
	 width="305px" height="142px" viewBox="0 0 305 142" enable-background="new 0 0 305 142" xml:space="preserve">
<g>
	<g>
		<linearGradient id="SVGID_1_" gradientUnits="userSpaceOnUse" x1="88.9248" y1="129.5391" x2="228.8479" y2="-10.384">
			<stop  offset="0" style="stop-color:#E460A2"/>
			<stop  offset="1" style="stop-color:#AB61A7"/>
		</linearGradient>
		<path fill="url(#SVGID_1_)" d="M151.407,4.527c-79.071-5.257-175.075-14-145.075,38s102,58,150.667,81.45
			c48.102,23.179,157.531,36.55,147.334-40.867C297.46,30.94,230.479,9.784,151.407,4.527z"/>
	</g>
	<defs>
		<filter id="Adobe_OpacityMaskFilter" filterUnits="userSpaceOnUse" x="0.706" y="0.479" width="304.294" height="141.521">
			
				<feColorMatrix  type="matrix" values="-1 0 0 0 1  0 -1 0 0 1  0 0 -1 0 1  0 0 0 1 0" color-interpolation-filters="sRGB" result="source"/>
		</filter>
	</defs>
	<mask maskUnits="userSpaceOnUse" x="0.706" y="0.479" width="304.294" height="141.521" id="SVGID_2_">
		<g filter="url(#Adobe_OpacityMaskFilter)">
			
				<image overflow="visible" width="1285" height="607" xlink:href="7AAB493F82C671E.jpg"  transform="matrix(0.24 0 0 0.24 -1.2939 -1.5205)">
			</image>
		</g>
	</mask>
	<g opacity="0.14" mask="url(#SVGID_2_)">
		<path fill="#010101" d="M151.407,4.527c-79.071-5.257-175.075-14-145.075,38s102,58,150.667,81.45
			c48.102,23.179,157.531,36.55,147.334-40.867C297.46,30.94,230.479,9.784,151.407,4.527z"/>
	</g>
</g>
</svg>
