<?xml version="1.0" encoding="utf-8"?>
<!-- Generator: Adobe Illustrator 16.0.0, SVG Export Plug-In . SVG Version: 6.00 Build 0)  -->
<!DOCTYPE svg PUBLIC "-//W3C//DTD SVG 1.1//EN" "http://www.w3.org/Graphics/SVG/1.1/DTD/svg11.dtd">
<svg version="1.1" id="Layer_1" xmlns="http://www.w3.org/2000/svg" xmlns:xlink="http://www.w3.org/1999/xlink" x="0px" y="0px"
	 width="1600px" height="742px" viewBox="0 0 1600 742" enable-background="new 0 0 1600 742" xml:space="preserve">
<g>
	<g>
		<linearGradient id="SVGID_1_" gradientUnits="userSpaceOnUse" x1="800" y1="742" x2="799.9999" y2="0.4204">
			<stop  offset="0.033" style="stop-color:#6363AD"/>
			<stop  offset="0.2342" style="stop-color:#7763AB"/>
			<stop  offset="0.535" style="stop-color:#8C63AA"/>
			<stop  offset="0.8004" style="stop-color:#9962A9"/>
			<stop  offset="1" style="stop-color:#9D62A8"/>
		</linearGradient>
		<path fill="url(#SVGID_1_)" d="M1600,134.424c-2.916-4.454-80.039-118.964-308.687-125.979
			c-261.621-8.025-429.387,156.372-693.65,162.109C321.341,176.554,0,0.42,0,0.42V742c0,0,58.089-130.37,235.242-254.762
			c177.152-124.392,519.517-267.472,741.292-218.974c238.756,52.211,359.954,212.408,470.665,274.216
			c103.854,57.979,142.582-8.987,152.801-33.619V134.424z"/>
	</g>
	<defs>
		<filter id="Adobe_OpacityMaskFilter" filterUnits="userSpaceOnUse" x="0" y="0.42" width="1600" height="741.58">
			
				<feColorMatrix  type="matrix" values="-1 0 0 0 1  0 -1 0 0 1  0 0 -1 0 1  0 0 0 1 0" color-interpolation-filters="sRGB" result="source"/>
		</filter>
	</defs>
	<mask maskUnits="userSpaceOnUse" x="0" y="0.42" width="1600" height="741.58" id="SVGID_2_">
		<g filter="url(#Adobe_OpacityMaskFilter)">
			
				<image overflow="visible" width="6684" height="3107" xlink:href="EA382BE0384D0ACA.jpg"  transform="matrix(0.24 0 0 0.24 -2.0005 -1.5801)">
			</image>
		</g>
	</mask>
	<g opacity="0.14" mask="url(#SVGID_2_)">
		<path fill="#010101" d="M1600,134.424c-2.916-4.454-80.039-118.964-308.687-125.979
			c-261.621-8.025-429.387,156.372-693.65,162.109C321.341,176.554,0,0.42,0,0.42V742c0,0,58.089-130.37,235.242-254.762
			c177.152-124.392,519.517-267.472,741.292-218.974c238.756,52.211,359.954,212.408,470.665,274.216
			c103.854,57.979,142.582-8.987,152.801-33.619V134.424z"/>
	</g>
</g>
</svg>
