<?xml version="1.0" encoding="utf-8"?>
<!-- Generator: Adobe Illustrator 16.0.0, SVG Export Plug-In . SVG Version: 6.00 Build 0)  -->
<!DOCTYPE svg PUBLIC "-//W3C//DTD SVG 1.1//EN" "http://www.w3.org/Graphics/SVG/1.1/DTD/svg11.dtd">
<svg version="1.1" id="Layer_1" xmlns="http://www.w3.org/2000/svg" xmlns:xlink="http://www.w3.org/1999/xlink" x="0px" y="0px"
	 width="1600px" height="421px" viewBox="0 0 1600 421" enable-background="new 0 0 1600 421" xml:space="preserve">
<g>
	<g>
		<linearGradient id="SVGID_1_" gradientUnits="userSpaceOnUse" x1="800.0005" y1="421" x2="800.0005" y2="4.882812e-04">
			<stop  offset="0" style="stop-color:#8162AA"/>
			<stop  offset="0.7823" style="stop-color:#B760A5"/>
		</linearGradient>
		<path fill="url(#SVGID_1_)" d="M1600,0c-16.13,38.358-61.984,99.277-189.443,169.597
			c-313.596,173.011-872.793,81.694-1106.022,51.599C165.891,203.306,66.85,162.953,0,124.185v222.378
			c74.182-54.638,191.272-97.426,369.149-64.661c378.995,69.812,670.888,152.453,832.378,137.277
			c161.49-15.178,299.209-85.216,359.581-188.877c22.284-38.264,33.409-63.453,38.892-79.656V0z"/>
	</g>
	<defs>
		<filter id="Adobe_OpacityMaskFilter" filterUnits="userSpaceOnUse" x="0" y="0" width="1600" height="421">
			
				<feColorMatrix  type="matrix" values="-1 0 0 0 1  0 -1 0 0 1  0 0 -1 0 1  0 0 0 1 0" color-interpolation-filters="sRGB" result="source"/>
		</filter>
	</defs>
	<mask maskUnits="userSpaceOnUse" x="0" y="0" width="1600" height="421" id="SVGID_2_">
		<g filter="url(#Adobe_OpacityMaskFilter)">
			
				<image overflow="visible" width="6684" height="1771" xlink:href="E74E99EA13E5B7E0.jpg"  transform="matrix(0.24 0 0 0.24 -2 -2)">
			</image>
		</g>
	</mask>
	<g opacity="0.14" mask="url(#SVGID_2_)">
		<path fill="#010101" d="M1600,0c-16.13,38.358-61.984,99.277-189.443,169.597c-313.596,173.011-872.793,81.694-1106.022,51.599
			C165.891,203.306,66.85,162.953,0,124.185v222.378c74.182-54.638,191.272-97.426,369.149-64.661
			c378.995,69.812,670.888,152.453,832.378,137.277c161.49-15.178,299.209-85.216,359.581-188.877
			c22.284-38.264,33.409-63.453,38.892-79.656V0z"/>
	</g>
</g>
</svg>
