<?xml version="1.0" encoding="utf-8"?>
<!-- Generator: Adobe Illustrator 16.0.0, SVG Export Plug-In . SVG Version: 6.00 Build 0)  -->
<!DOCTYPE svg PUBLIC "-//W3C//DTD SVG 1.1//EN" "http://www.w3.org/Graphics/SVG/1.1/DTD/svg11.dtd">
<svg version="1.1" id="Layer_1" xmlns="http://www.w3.org/2000/svg" xmlns:xlink="http://www.w3.org/1999/xlink" x="0px" y="0px"
	 width="1600px" height="1099px" viewBox="0 0 1600 1099" enable-background="new 0 0 1600 1099" xml:space="preserve">
<g>
	<g>
		<linearGradient id="SVGID_1_" gradientUnits="userSpaceOnUse" x1="800.2466" y1="1100.125" x2="800.2465" y2="1.1255">
			<stop  offset="0.033" style="stop-color:#6363AD"/>
			<stop  offset="0.2342" style="stop-color:#7763AB"/>
			<stop  offset="0.535" style="stop-color:#8C63AA"/>
			<stop  offset="0.8004" style="stop-color:#9962A9"/>
			<stop  offset="1" style="stop-color:#9D62A8"/>
		</linearGradient>
		<path fill="url(#SVGID_1_)" d="M0.247,1.125c0,0,64.698,370.713,311.11,426.737s571.892-150.103,834.452-161.956
			c311.959-14.082,413.693,128.84,454.438,205.976v628.243c0,0-24.701-233.63-243.539-354.19
			c-303.527-167.216-707.87-105.056-922.527-72.039C222.039,706.527,21.126,847.989,0.247,911.022V1.125z"/>
	</g>
	<defs>
		<filter id="Adobe_OpacityMaskFilter" filterUnits="userSpaceOnUse" x="0.247" y="1.125" width="1600" height="1099">
			
				<feColorMatrix  type="matrix" values="-1 0 0 0 1  0 -1 0 0 1  0 0 -1 0 1  0 0 0 1 0" color-interpolation-filters="sRGB" result="source"/>
		</filter>
	</defs>
	<mask maskUnits="userSpaceOnUse" x="0.247" y="1.125" width="1600" height="1099" id="SVGID_2_">
		<g filter="url(#Adobe_OpacityMaskFilter)">
			
				<image overflow="visible" width="6684" height="4596" xlink:href="7AAB493F82C671E.jpg"  transform="matrix(0.24 0 0 0.24 -1.7534 -0.875)">
			</image>
		</g>
	</mask>
	<g opacity="0.14" mask="url(#SVGID_2_)">
		<path fill="#010101" d="M0.247,1.125c0,0,64.698,370.713,311.11,426.737s571.892-150.103,834.452-161.956
			c311.959-14.082,413.693,128.84,454.438,205.976v628.243c0,0-24.701-233.63-243.539-354.19
			c-303.527-167.216-707.87-105.056-922.527-72.039C222.039,706.527,21.126,847.989,0.247,911.022V1.125z"/>
	</g>
</g>
</svg>
