<?xml version="1.0" encoding="utf-8"?>
<!-- Generator: Adobe Illustrator 16.0.0, SVG Export Plug-In . SVG Version: 6.00 Build 0)  -->
<!DOCTYPE svg PUBLIC "-//W3C//DTD SVG 1.1//EN" "http://www.w3.org/Graphics/SVG/1.1/DTD/svg11.dtd">
<svg version="1.1" id="Layer_1" xmlns="http://www.w3.org/2000/svg" xmlns:xlink="http://www.w3.org/1999/xlink" x="0px" y="0px"
	 width="1600px" height="767px" viewBox="0 0 1600 767" enable-background="new 0 0 1600 767" xml:space="preserve">
<g>
	<g>
		<linearGradient id="SVGID_1_" gradientUnits="userSpaceOnUse" x1="800.0005" y1="767" x2="800.0004" y2="4.882812e-04">
			<stop  offset="0.033" style="stop-color:#6363AD"/>
			<stop  offset="0.2342" style="stop-color:#7763AB"/>
			<stop  offset="0.535" style="stop-color:#8C63AA"/>
			<stop  offset="0.8004" style="stop-color:#9962A9"/>
			<stop  offset="1" style="stop-color:#9D62A8"/>
		</linearGradient>
		<path fill="url(#SVGID_1_)" d="M1600,0c-13.825,65.375-65.549,191.109-256.13,312.598
			c-310.035,197.637-764.161,133.464-988.562,72.883C226.435,350.688,92.494,261.143,0,180.628v586.257
			c50.994-75.527,123.252-143.156,223.693-164.717c264.051-56.683,612.828,151.86,894.182,163.852
			C1440.447,779.77,1553.26,645.612,1600,566.074V0z"/>
	</g>
	<defs>
		<filter id="Adobe_OpacityMaskFilter" filterUnits="userSpaceOnUse" x="0" y="0" width="1600" height="767">
			
				<feColorMatrix  type="matrix" values="-1 0 0 0 1  0 -1 0 0 1  0 0 -1 0 1  0 0 0 1 0" color-interpolation-filters="sRGB" result="source"/>
		</filter>
	</defs>
	<mask maskUnits="userSpaceOnUse" x="0" y="0" width="1600" height="767" id="SVGID_2_">
		<g filter="url(#Adobe_OpacityMaskFilter)">
			
				<image overflow="visible" width="6684" height="3213" xlink:href="140F96C7AFDB4165.jpg"  transform="matrix(0.24 0 0 0.24 -2 -2)">
			</image>
		</g>
	</mask>
	<g opacity="0.14" mask="url(#SVGID_2_)">
		<path fill="#010101" d="M1600,0c-13.825,65.375-65.549,191.109-256.13,312.598c-310.035,197.637-764.161,133.464-988.562,72.883
			C226.435,350.688,92.494,261.143,0,180.628v586.257c50.994-75.527,123.252-143.156,223.693-164.717
			c264.051-56.683,612.828,151.86,894.182,163.852C1440.447,779.77,1553.26,645.612,1600,566.074V0z"/>
	</g>
</g>
</svg>
