<?xml version="1.0" encoding="utf-8"?>
<!-- Generator: Adobe Illustrator 16.0.0, SVG Export Plug-In . SVG Version: 6.00 Build 0)  -->
<!DOCTYPE svg PUBLIC "-//W3C//DTD SVG 1.1//EN" "http://www.w3.org/Graphics/SVG/1.1/DTD/svg11.dtd">
<svg version="1.1" id="Layer_1" xmlns="http://www.w3.org/2000/svg" xmlns:xlink="http://www.w3.org/1999/xlink" x="0px" y="0px"
	 width="1600px" height="477px" viewBox="0 0 1600 477" enable-background="new 0 0 1600 477" xml:space="preserve">
<g>
	<g>
		<linearGradient id="SVGID_1_" gradientUnits="userSpaceOnUse" x1="800" y1="0" x2="800" y2="476.7466">
			<stop  offset="0" style="stop-color:#C860A5"/>
			<stop  offset="0.756" style="stop-color:#8162AA"/>
		</linearGradient>
		<path fill="url(#SVGID_1_)" d="M1600,150.907c-8.048-26.595-47.734-122.715-205.095-144.242
			c-152.908-20.918-281.319,11.082-389.666,45.082c-108.346,34-290.777,94.418-494.218,79.712C251.093,112.669,0,24.747,0,24.747
			v452c0,0,234.205-198.213,438.29-255.84c221.205-62.461,408.442-139.159,681.315-57.159c272.873,82,289.915,178.857,389.443,162
			c72.423-12.266,87.753-51.197,90.951-68.98V150.907z"/>
	</g>
	<defs>
		<filter id="Adobe_OpacityMaskFilter" filterUnits="userSpaceOnUse" x="0" y="0" width="1600" height="476.746">
			
				<feColorMatrix  type="matrix" values="-1 0 0 0 1  0 -1 0 0 1  0 0 -1 0 1  0 0 0 1 0" color-interpolation-filters="sRGB" result="source"/>
		</filter>
	</defs>
	<mask maskUnits="userSpaceOnUse" x="0" y="0" width="1600" height="476.746" id="SVGID_2_">
		<g filter="url(#Adobe_OpacityMaskFilter)">
			
				<image overflow="visible" width="6684" height="2004" xlink:href="F01BA1EB6C78785.jpg"  transform="matrix(0.24 0 0 0.24 -1.9995 -2)">
			</image>
		</g>
	</mask>
	<g opacity="0.14" mask="url(#SVGID_2_)">
		<path fill="#010101" d="M1600,150.907c-8.048-26.595-47.734-122.715-205.095-144.242
			c-152.908-20.918-281.319,11.082-389.666,45.082c-108.346,34-290.777,94.418-494.218,79.712C251.093,112.669,0,24.747,0,24.747
			v452c0,0,234.205-198.213,438.29-255.84c221.205-62.461,408.442-139.159,681.315-57.159c272.873,82,289.915,178.857,389.443,162
			c72.423-12.266,87.753-51.197,90.951-68.98V150.907z"/>
	</g>
</g>
</svg>
