<?xml version="1.0" encoding="utf-8"?>
<!-- Generator: Adobe Illustrator 16.0.0, SVG Export Plug-In . SVG Version: 6.00 Build 0)  -->
<!DOCTYPE svg PUBLIC "-//W3C//DTD SVG 1.1//EN" "http://www.w3.org/Graphics/SVG/1.1/DTD/svg11.dtd">
<svg version="1.1" id="Layer_1" xmlns="http://www.w3.org/2000/svg" xmlns:xlink="http://www.w3.org/1999/xlink" x="0px" y="0px"
	 width="1600px" height="522px" viewBox="0 0 1600 522" enable-background="new 0 0 1600 522" xml:space="preserve">
<g>
	<g>
		<linearGradient id="SVGID_1_" gradientUnits="userSpaceOnUse" x1="799.9995" y1="0" x2="799.9995" y2="522.0005">
			<stop  offset="0" style="stop-color:#C860A5"/>
			<stop  offset="0.756" style="stop-color:#8162AA"/>
		</linearGradient>
		<path fill="url(#SVGID_1_)" d="M0,0c0,0,97.096,269.999,449.066,201c351.969-69.001,624.921-177.93,774.896-162.93
			c149.975,15.001,279.086,98.982,332.068,213.931C1599.669,346.675,1599.558,357,1599.558,357v165
			c0,0,18.477-91.503-183.342-210.001C1124.981,140.998,605.658,231.255,389.06,261C105.07,300,0,447.001,0,447.001V0z"/>
	</g>
	<defs>
		<filter id="Adobe_OpacityMaskFilter" filterUnits="userSpaceOnUse" x="0" y="0" width="1600" height="522">
			
				<feColorMatrix  type="matrix" values="-1 0 0 0 1  0 -1 0 0 1  0 0 -1 0 1  0 0 0 1 0" color-interpolation-filters="sRGB" result="source"/>
		</filter>
	</defs>
	<mask maskUnits="userSpaceOnUse" x="0" y="0" width="1600" height="522" id="SVGID_2_">
		<g filter="url(#Adobe_OpacityMaskFilter)">
			
				<image overflow="visible" width="6684" height="2192" xlink:href="EA382BE0384D0ACA.jpg"  transform="matrix(0.24 0 0 0.24 -2 -2)">
			</image>
		</g>
	</mask>
	<g opacity="0.14" mask="url(#SVGID_2_)">
		<path fill="#010101" d="M0,0c0,0,97.096,269.999,449.066,201c351.969-69.001,624.921-177.93,774.896-162.93
			c149.975,15.001,279.086,98.982,332.068,213.931C1599.669,346.675,1599.558,357,1599.558,357v165
			c0,0,18.477-91.503-183.342-210.001C1124.981,140.998,605.658,231.255,389.06,261C105.07,300,0,447.001,0,447.001V0z"/>
	</g>
</g>
</svg>
