<?xml version="1.0" encoding="utf-8"?>
<!-- Generator: Adobe Illustrator 16.0.0, SVG Export Plug-In . SVG Version: 6.00 Build 0)  -->
<!DOCTYPE svg PUBLIC "-//W3C//DTD SVG 1.1//EN" "http://www.w3.org/Graphics/SVG/1.1/DTD/svg11.dtd">
<svg version="1.1" id="Layer_1" xmlns="http://www.w3.org/2000/svg" xmlns:xlink="http://www.w3.org/1999/xlink" x="0px" y="0px"
	 width="296px" height="218px" viewBox="0 0 296 218" enable-background="new 0 0 296 218" xml:space="preserve">
<g>
	<path id="Fill-1_3_" fill="#1E1E1C" d="M9.892,158.801c0,6.107,0.057,11.404,0.113,12.496c0.06,1.447,0.175,3.75,0.63,4.385
		c0.753,1.1,3.012,2.305,9.839,2.305c5.377,0,10.349-1.963,13.761-5.357c3.013-2.939,4.625-8.477,4.625-13.768
		c0-7.316-3.179-12.039-5.544-14.51c-5.444-5.705-12.032-6.516-18.917-6.516c-1.155,0-3.292,0.178-3.763,0.404
		c-0.517,0.23-0.686,0.52-0.686,1.15c-0.057,1.961-0.057,7.832-0.057,12.266V158.801z M5.028,152.582c0-8.986,0-10.596-0.114-12.447
		c-0.116-1.953-0.575-2.877-2.492-3.279c-0.455-0.113-1.437-0.172-1.956-0.172c-0.231,0-0.466-0.113-0.466-0.35
		c0-0.344,0.284-0.455,0.92-0.455c2.605,0,6.248,0.17,6.532,0.17c0.704,0,4.352-0.17,7.815-0.17c5.725,0,16.312-0.516,23.19,6.564
		c2.897,3,5.609,7.775,5.609,14.625c0,7.262-3.012,12.85-6.244,16.244c-2.496,2.598-7.693,6.627-17.526,6.627
		c-2.487,0-5.553-0.17-8.046-0.346c-2.537-0.172-4.502-0.346-4.799-0.346c-0.115,0-1.086,0-2.309,0.059
		c-1.158,0-2.481,0.115-3.351,0.115c-0.633,0-0.923-0.115-0.923-0.459c0-0.174,0.116-0.346,0.457-0.346
		c0.528,0,1.22-0.119,1.74-0.23c1.157-0.229,1.445-1.5,1.673-3.168c0.289-2.414,0.289-6.971,0.289-12.5V152.582z"/>
	<path id="Fill-3_3_" fill="#1E1E1C" d="M54.454,156.234c0-7.662,0-9.061-0.12-10.631c-0.116-1.562-0.404-2.498-2.074-2.73
		c-0.398-0.057-1.25-0.111-1.716-0.111c-0.169,0-0.397-0.234-0.397-0.412c0-0.287,0.229-0.4,0.801-0.4
		c2.3,0,5.339,0.113,5.796,0.113c0.461,0,3.622-0.113,5.117-0.113c0.567,0,0.848,0.113,0.848,0.4c0,0.178-0.232,0.412-0.448,0.412
		c-0.35,0-0.635,0-1.264,0.111c-1.327,0.232-1.61,1.105-1.725,2.73c-0.115,1.57-0.115,2.969-0.115,10.631v6.918
		c0,7.141,1.549,10.105,3.733,12.08c2.458,2.266,4.639,2.67,7.512,2.67c3.105,0,6.087-1.391,7.806-3.48
		c2.359-2.85,2.87-6.914,2.87-11.969v-6.219c0-7.662-0.056-9.061-0.11-10.631c-0.063-1.562-0.35-2.498-2.018-2.73
		c-0.395-0.057-1.25-0.111-1.716-0.111c-0.232,0-0.397-0.234-0.397-0.412c0-0.287,0.231-0.4,0.798-0.4
		c2.234,0,5.167,0.113,5.458,0.113c0.336,0,2.748-0.113,4.244-0.113c0.576,0,0.798,0.113,0.798,0.4c0,0.178-0.172,0.412-0.397,0.412
		c-0.345,0-0.636,0-1.262,0.111c-1.384,0.293-1.665,1.105-1.784,2.73c-0.113,1.57-0.054,2.969-0.054,10.631v5.289
		c0,5.346-0.697,11.336-4.71,14.811c-3.671,3.199-7.577,3.605-10.563,3.605c-1.657,0-6.939-0.121-10.495-3.492
		c-2.473-2.318-4.418-5.746-4.418-12.949V156.234z"/>
	<path id="Fill-5_3_" fill="#1E1E1C" d="M100.011,156.732c0-7.711,0-9.115-0.119-10.697c-0.107-1.688-0.395-2.514-2.045-2.746
		c-0.401-0.055-1.255-0.111-1.716-0.111c-0.166,0-0.397-0.236-0.397-0.414c0-0.291,0.232-0.406,0.802-0.406
		c2.279,0,5.414,0.115,5.698,0.115c0.964,0,11.854,0.059,12.994,0c0.955-0.059,1.816-0.059,2.279-0.238
		c0.279-0.059,0.507-0.285,0.677-0.285c0.232,0,0.344,0.227,0.344,0.465c0,0.35-0.228,0.932-0.397,2.336
		c-0.063,0.465-0.116,2.689-0.231,3.273c-0.051,0.24-0.226,0.529-0.455,0.529c-0.219,0-0.4-0.238-0.4-0.588
		c0-0.41-0.167-1.227-0.452-1.869c-0.284-0.639-1.483-1.463-3.421-1.463l-8.209-0.117c-0.276,0-0.392,0.117-0.392,0.531V158.6
		c0,0.299,0,0.473,0.338,0.473l6.835-0.061c0.861,0,1.603,0,2.28-0.055c1.205-0.117,1.884-0.299,2.335-0.883
		c0.234-0.287,0.46-0.521,0.63-0.521c0.237,0,0.281,0.17,0.281,0.408c0,0.293-0.335,1.111-0.451,2.742
		c-0.11,1-0.169,2.99-0.169,3.338c0,0.465-0.115,0.996-0.466,0.996c-0.275,0-0.329-0.236-0.329-0.461
		c-0.06-0.535-0.114-1.236-0.347-1.822c-0.232-0.701-1.018-1.342-2.571-1.574c-1.25-0.174-7.17-0.117-8.028-0.117
		c-0.282,0-0.338,0.117-0.338,0.459v3.975c0,4.918,0,8.834,0.219,10.764c0.172,1.463,0.46,2.396,1.828,2.629
		c0.749,0.113,1.829,0.23,2.279,0.23c0.282,0,0.398,0.232,0.398,0.41c0,0.234-0.225,0.41-0.793,0.41
		c-2.792,0-6.036-0.176-6.267-0.176c-0.285,0-3.419,0.176-4.957,0.176c-0.511,0-0.798-0.119-0.798-0.41
		c0-0.178,0.112-0.41,0.395-0.41c0.462,0,1.083-0.17,1.543-0.23c0.961-0.178,1.081-1.166,1.312-2.629
		c0.282-2.051,0.282-5.967,0.282-10.764V156.732z"/>
	<path id="Fill-7_3_" fill="#1E1E1C" d="M130.406,156.732c0-7.711,0-9.115-0.116-10.697c-0.119-1.688-0.4-2.514-2.048-2.746
		c-0.404-0.055-1.255-0.111-1.719-0.111c-0.166,0-0.397-0.236-0.397-0.414c0-0.291,0.231-0.406,0.795-0.406
		c2.28,0,5.419,0.115,5.71,0.115c0.958,0,11.843,0.059,12.985,0c0.967-0.059,1.83-0.059,2.275-0.238
		c0.283-0.059,0.508-0.285,0.684-0.285c0.234,0,0.343,0.227,0.343,0.465c0,0.35-0.225,0.932-0.4,2.336
		c-0.051,0.465-0.119,2.689-0.219,3.273c-0.061,0.24-0.236,0.529-0.461,0.529c-0.229,0-0.393-0.238-0.393-0.588
		c0-0.41-0.178-1.227-0.466-1.869c-0.278-0.639-1.481-1.463-3.416-1.463l-8.203-0.117c-0.284,0-0.405,0.117-0.405,0.531V158.6
		c0,0.299,0,0.473,0.346,0.473l6.845-0.061c0.845,0,1.591,0,2.279-0.055c1.19-0.117,1.866-0.299,2.326-0.883
		c0.229-0.287,0.463-0.521,0.629-0.521c0.229,0,0.282,0.17,0.282,0.408c0,0.293-0.344,1.111-0.448,2.742
		c-0.118,1-0.178,2.99-0.178,3.338c0,0.465-0.109,0.996-0.454,0.996c-0.291,0-0.342-0.236-0.342-0.461
		c-0.053-0.535-0.115-1.236-0.344-1.822c-0.223-0.701-1.021-1.342-2.561-1.574c-1.26-0.174-7.18-0.117-8.035-0.117
		c-0.285,0-0.346,0.117-0.346,0.459v3.975c0,4.918,0,8.834,0.23,10.764c0.175,1.463,0.457,2.396,1.82,2.629
		c0.744,0.113,1.827,0.23,2.284,0.23c0.287,0,0.401,0.232,0.401,0.41c0,0.234-0.232,0.41-0.796,0.41
		c-2.796,0-6.047-0.176-6.266-0.176c-0.291,0-3.43,0.176-4.965,0.176c-0.51,0-0.799-0.119-0.799-0.41c0-0.178,0.119-0.41,0.404-0.41
		c0.449,0,1.086-0.17,1.534-0.23c0.971-0.178,1.084-1.166,1.307-2.629c0.294-2.051,0.294-5.967,0.294-10.764V156.732z"/>
	<path id="Fill-9_3_" fill="#1E1E1C" d="M160.765,156.684c0-7.684,0-9.084-0.119-10.662c-0.119-1.682-0.395-2.504-2.033-2.736
		c-0.395-0.055-1.244-0.113-1.691-0.113c-0.174,0-0.404-0.236-0.404-0.412c0-0.289,0.23-0.402,0.795-0.402
		c2.266,0,5.488,0.113,5.77,0.113c0.34,0,10.744,0.059,11.869,0c0.969-0.059,1.871-0.238,2.262-0.295
		c0.232-0.059,0.457-0.227,0.684-0.227c0.172,0,0.225,0.227,0.225,0.463c0,0.348-0.285,0.93-0.391,2.328
		c-0.061,0.463-0.176,2.682-0.285,3.266c-0.057,0.236-0.232,0.525-0.457,0.525c-0.279,0-0.395-0.236-0.395-0.639
		c0-0.354-0.051-1.17-0.279-1.748c-0.344-0.82-0.85-1.166-3.564-1.518c-0.852-0.119-6.619-0.17-7.178-0.17
		c-0.232,0-0.299,0.17-0.299,0.521v13.457c0,0.35,0,0.523,0.299,0.523c0.619,0,7.178,0,8.314-0.113
		c1.182-0.119,1.914-0.178,2.428-0.705c0.338-0.342,0.57-0.637,0.736-0.637c0.162,0,0.275,0.115,0.275,0.406
		c0,0.293-0.275,1.107-0.389,2.734c-0.115,0.998-0.229,2.861-0.229,3.209c0,0.41-0.115,0.934-0.451,0.934
		c-0.229,0-0.338-0.176-0.338-0.469c0-0.465,0-0.99-0.223-1.629c-0.178-0.699-0.629-1.283-2.553-1.516
		c-1.359-0.172-6.676-0.229-7.523-0.229c-0.281,0-0.348,0.174-0.348,0.34v4.139c0,1.693-0.041,7.461,0,8.447
		c0.127,3.326,1.033,3.969,5.947,3.969c1.303,0,3.68,0,4.979-0.523c1.305-0.584,1.977-1.459,2.27-3.445
		c0.104-0.578,0.219-0.748,0.508-0.748c0.279,0,0.334,0.4,0.334,0.748c0,0.357-0.396,3.738-0.678,4.783
		c-0.34,1.285-0.85,1.285-2.77,1.285c-3.742,0-6.621-0.119-8.654-0.18c-2.094-0.117-3.393-0.117-4.127-0.117
		c-0.115,0-1.08,0-2.154,0.059c-0.957,0.059-2.09,0.119-2.877,0.119c-0.518,0-0.803-0.119-0.803-0.408
		c0-0.178,0.121-0.408,0.398-0.408c0.459,0,1.08-0.17,1.537-0.23c0.949-0.176,1.068-1.164,1.293-2.623
		c0.289-2.043,0.289-5.945,0.289-10.727V156.684z"/>
	<path id="Fill-11_3_" fill="#1E1E1C" d="M197.05,159.984c0,0.283,0.109,0.455,0.332,0.629c0.748,0.389,3.309,0.734,5.541,0.734
		c1.197,0,2.568-0.059,3.758-0.854c1.713-1.137,3.025-3.688,3.025-7.379c0-6.012-3.307-9.473-8.666-9.473
		c-1.488,0-3.078,0.172-3.59,0.289c-0.23,0.109-0.4,0.277-0.4,0.568V159.984z M192.714,155.896c0-7.482,0-8.848-0.125-10.381
		c-0.105-1.637-0.391-2.438-2.045-2.664c-0.396-0.055-1.254-0.107-1.717-0.107c-0.168,0-0.398-0.232-0.398-0.404
		c0-0.281,0.23-0.391,0.801-0.391c2.283,0,5.643,0.109,5.926,0.109c0.523,0,4.742-0.109,6.281-0.109
		c3.197,0,6.738,0.279,9.361,2.092c1.252,0.914,3.479,3.236,3.479,6.58c0,3.576-1.49,7.039-6.156,11.014
		c4.096,5.104,7.578,9.473,10.482,12.473c2.689,2.727,4.34,3.178,5.596,3.352c0.967,0.164,1.479,0.164,1.766,0.164
		c0.281,0,0.455,0.229,0.455,0.396c0,0.285-0.285,0.398-1.193,0.398h-3.141c-2.85,0-4.107-0.279-5.359-0.959
		c-2.168-1.141-3.996-3.461-6.842-7.098c-2.113-2.607-4.336-5.727-5.416-7.035c-0.236-0.221-0.348-0.275-0.695-0.275l-6.391-0.119
		c-0.223,0-0.332,0.119-0.332,0.395v1.143c0,4.648,0,8.391,0.223,10.379c0.178,1.42,0.457,2.326,1.994,2.553
		c0.689,0.107,1.773,0.223,2.227,0.223c0.35,0,0.4,0.229,0.4,0.396c0,0.227-0.229,0.398-0.799,0.398
		c-2.736,0-5.939-0.172-6.154-0.172c-0.068,0-3.428,0.172-4.967,0.172c-0.512,0-0.801-0.113-0.801-0.398
		c0-0.168,0.117-0.396,0.398-0.396c0.447,0,1.088-0.115,1.541-0.223c0.969-0.227,1.086-1.133,1.314-2.553
		c0.287-1.988,0.287-5.789,0.287-10.443V155.896z"/>
	<path id="Fill-13_3_" fill="#1E1E1C" d="M239.655,164.404c0,4.654,0,8.453,0.238,10.443c0.18,1.42,0.357,2.326,1.926,2.553
		c0.791,0.107,1.938,0.223,2.416,0.223c0.305,0,0.418,0.227,0.418,0.396c0,0.227-0.238,0.398-0.84,0.398
		c-2.953,0-6.391-0.172-6.639-0.172c-0.299,0-3.613,0.172-5.244,0.172c-0.539,0-0.848-0.113-0.848-0.398
		c0-0.17,0.127-0.396,0.424-0.396c0.482,0,1.145-0.115,1.637-0.223c1.012-0.227,1.201-1.133,1.379-2.553
		c0.24-1.99,0.301-5.789,0.301-10.443v-8.508c0-7.482,0-8.848-0.115-10.381c-0.135-1.637-0.553-2.379-1.686-2.609
		c-0.613-0.109-1.271-0.162-1.631-0.162c-0.246,0-0.414-0.232-0.414-0.404c0-0.281,0.232-0.391,0.836-0.391
		c1.748,0,5.062,0.109,5.361,0.109c0.248,0,3.686-0.109,5.309-0.109c0.605,0,0.842,0.109,0.842,0.391
		c0,0.172-0.236,0.404-0.424,0.404c-0.352,0-0.715,0-1.326,0.107c-1.443,0.285-1.742,0.963-1.869,2.664
		c-0.051,1.533-0.051,2.898-0.051,10.381V164.404z"/>
	<path id="Fill-15_3_" fill="#1E1E1C" d="M257.862,172.928c0.117,4.027,0.58,5.23,1.969,5.578c0.924,0.227,2.086,0.283,2.541,0.283
		c0.234,0,0.416,0.174,0.416,0.4c0,0.287-0.352,0.402-0.934,0.402c-2.893,0-4.916-0.172-5.393-0.172
		c-0.453,0-2.596,0.172-4.916,0.172c-0.527,0-0.814-0.057-0.814-0.402c0-0.227,0.178-0.4,0.398-0.4c0.416,0,1.344-0.057,2.094-0.283
		c1.273-0.348,1.449-1.668,1.449-6.094v-27.996c0-1.953,0.297-2.467,0.697-2.467c0.57,0,1.445,0.975,1.965,1.496
		c0.807,0.799,8.221,8.619,16.104,16.668c5.049,5.17,10.5,10.973,12.057,12.586l-0.518-24.488c-0.064-3.156-0.35-4.26-1.91-4.539
		c-0.936-0.172-2.096-0.227-2.5-0.227c-0.348,0-0.406-0.295-0.406-0.465c0-0.285,0.406-0.34,0.988-0.34
		c2.318,0,4.748,0.111,5.324,0.111c0.588,0,2.268-0.111,4.355-0.111c0.521,0,0.932,0.055,0.932,0.34c0,0.17-0.234,0.465-0.588,0.465
		c-0.232,0-0.639,0-1.215,0.111c-1.676,0.342-1.795,1.32-1.795,4.254l-0.119,28.619c0,3.223-0.059,3.51-0.398,3.51
		c-0.533,0-1.049-0.404-3.891-2.984c-0.521-0.459-7.879-7.645-13.266-13.229c-5.906-6.146-11.641-12.121-13.205-13.85
		L257.862,172.928z"/>
</g>
<g>
	<path id="Fill-21_3_" fill="#0B5C80" d="M88.135,197.885l-1.466,1.221c-0.813-1.145-1.792-2.018-2.926-2.604
		c-1.13-0.594-2.383-0.887-3.745-0.887c-1.485,0-2.867,0.385-4.134,1.162c-1.271,0.771-2.244,1.811-2.944,3.121
		c-0.701,1.309-1.054,2.779-1.054,4.414c0,2.467,0.79,4.535,2.344,6.182c1.562,1.652,3.526,2.475,5.904,2.475
		c2.608,0,4.796-1.105,6.555-3.326l1.466,1.213c-0.929,1.281-2.092,2.277-3.475,2.98c-1.389,0.703-2.945,1.053-4.663,1.053
		c-3.266,0-5.838-1.178-7.726-3.539c-1.576-1.984-2.371-4.398-2.371-7.215c0-2.963,0.958-5.457,2.875-7.486
		c1.912-2.025,4.313-3.035,7.195-3.035c1.745,0,3.312,0.375,4.716,1.117C86.093,195.486,87.232,196.533,88.135,197.885"/>
	<path id="Fill-23_3_" fill="#0B5C80" d="M108.611,195.584c-1.383,0-2.701,0.391-3.947,1.172c-1.238,0.781-2.209,1.828-2.909,3.158
		c-0.694,1.32-1.044,2.791-1.044,4.42c0,2.414,0.769,4.441,2.308,6.102c1.556,1.658,3.408,2.488,5.592,2.488
		c1.454,0,2.805-0.389,4.04-1.152c1.237-0.762,2.205-1.801,2.897-3.123c0.694-1.322,1.041-2.795,1.041-4.408
		c0-1.611-0.347-3.061-1.041-4.361c-0.692-1.301-1.671-2.342-2.924-3.123C111.356,195.975,110.023,195.584,108.611,195.584
		 M108.525,193.613c2.843,0,5.221,1.027,7.135,3.074c1.911,2.047,2.867,4.568,2.867,7.559c0,2.965-0.956,5.482-2.862,7.543
		c-1.91,2.066-4.24,3.1-6.986,3.1c-2.778,0-5.129-1.033-7.04-3.082c-1.915-2.057-2.867-4.553-2.867-7.467
		c0-1.947,0.439-3.748,1.308-5.412c0.87-1.66,2.052-2.959,3.559-3.9C105.144,194.086,106.771,193.613,108.525,193.613"/>
	<path id="Fill-25_3_" fill="#0B5C80" d="M127.644,193.613h2.179v12.529c0,1.48,0.033,2.412,0.095,2.775
		c0.103,0.818,0.356,1.506,0.753,2.059c0.397,0.551,1.009,1.008,1.834,1.387c0.818,0.363,2.76,0.547,3.598,0.547
		c0.721,0,2.537-0.143,3.189-0.436c0.671-0.293,1.23-0.697,1.676-1.213c0.441-0.516,0.768-1.141,0.984-1.881
		c0.143-0.52,0.22-1.604,0.22-3.238v-12.529h2.187v12.529c0,1.854-0.192,3.35-0.578,4.492c-0.374,1.143-1.137,2.139-2.289,2.984
		c-1.142,0.846-3.649,1.27-5.279,1.27c-1.758,0-4.384-0.406-5.639-1.199c-1.265-0.803-2.104-1.857-2.538-3.176
		c-0.264-0.809-0.392-2.264-0.392-4.371V193.613z"/>
	<polygon id="Fill-27_3_" fill="#0B5C80" points="154.997,214.889 154.997,193.613 155.462,193.613 169.62,209.922 169.62,193.613 
		171.712,193.613 171.712,214.889 171.243,214.889 157.192,198.771 157.192,214.889 	"/>
	<polygon id="Fill-29_3_" fill="#0B5C80" points="179.31,195.691 179.31,193.613 196.024,193.613 196.024,195.691 189.327,195.691 
		189.327,214.889 187.181,214.889 187.181,195.691 	"/>
	<polygon id="Fill-31_3_" fill="#0B5C80" points="202.104,193.613 204.476,193.613 212.022,202.385 219.481,193.613 
		221.858,193.613 213.056,204.715 213.056,214.889 211.028,214.889 211.028,204.715 	"/>
</g>
<g opacity="0.2">
	
		<image overflow="visible" width="1517" height="485" xlink:href="5F2BCF427AE7A46.png"  transform="matrix(0.24 0 0 0.24 -32.1235 102.7471)">
	</image>
</g>
<g opacity="0.2">
	
		<image overflow="visible" width="935" height="390" xlink:href="5F2BCF427AE7A4A.png"  transform="matrix(0.24 0 0 0.24 37.7769 160.4893)">
	</image>
</g>
<g opacity="0.2">
	
		<image overflow="visible" width="729" height="790" xlink:href="5F2BCF427AE7A4D.png"  transform="matrix(0.24 0 0 0.24 62.4873 -33.1235)">
	</image>
</g>
<g>
	<path id="Fill-17_2_" fill="#0B5C80" d="M197.147,117.32v-16.033c-23.641,0-42.885-18.865-42.885-42.055
		c0-23.207,19.244-42.076,42.885-42.076V1.113c-32.717,0-59.242,26.027-59.242,58.119C137.906,91.305,164.431,117.32,197.147,117.32
		"/>
	<path id="Fill-19_2_" fill="#0B5C80" d="M197.147,78.586c-11.324,0-20.508-9.184-20.508-20.5c0-11.336,9.184-20.516,20.508-20.516
		V78.586z"/>
	<defs>
		<filter id="Adobe_OpacityMaskFilter" filterUnits="userSpaceOnUse" x="94.611" y="0" width="57.856" height="115.043">
			<feColorMatrix  type="matrix" values="1 0 0 0 0  0 1 0 0 0  0 0 1 0 0  0 0 0 1 0"/>
		</filter>
	</defs>
	<mask maskUnits="userSpaceOnUse" x="94.611" y="0" width="57.856" height="115.043" id="mask-2_3_">
		<g filter="url(#Adobe_OpacityMaskFilter)">
			<polygon id="path-1_3_" fill="#FFFFFF" points="94.611,0 152.466,0 152.466,115.043 94.611,115.043 			"/>
		</g>
	</mask>
	<path id="Fill-33_2_" mask="url(#mask-2_3_)" fill="#3285A5" d="M94.611,0v15.875c23.095,0,41.881,18.682,41.881,41.641
		c0,22.967-18.786,41.65-41.881,41.65v15.877c31.953,0,57.855-25.766,57.855-57.527C152.466,25.76,126.564,0,94.611,0"/>
	<path id="Fill-36_2_" fill="#3285A5" d="M94.611,37.57c11.323,0,20.509,9.182,20.509,20.5c0,11.332-9.186,20.516-20.509,20.516
		V37.57z"/>
</g>
</svg>
