<?xml version="1.0" encoding="utf-8"?>
<!-- Generator: Adobe Illustrator 16.0.0, SVG Export Plug-In . SVG Version: 6.00 Build 0)  -->
<!DOCTYPE svg PUBLIC "-//W3C//DTD SVG 1.1//EN" "http://www.w3.org/Graphics/SVG/1.1/DTD/svg11.dtd">
<svg version="1.1" id="Layer_1" xmlns="http://www.w3.org/2000/svg" xmlns:xlink="http://www.w3.org/1999/xlink" x="0px" y="0px"
	 width="143px" height="111px" viewBox="0 0 143 111" enable-background="new 0 0 143 111" xml:space="preserve">
<g>
	<g>
		<g>
			<linearGradient id="SVGID_1_" gradientUnits="userSpaceOnUse" x1="73.6973" y1="47.9224" x2="99.958" y2="47.9224">
				<stop  offset="0" style="stop-color:#8162AA"/>
				<stop  offset="1" style="stop-color:#C860A5"/>
			</linearGradient>
			<path fill="url(#SVGID_1_)" d="M99.314,55.17L82.871,39.895c-0.203-0.188-0.445-0.334-0.699-0.428l-5.664-2.212
				c-1.047-0.41-2.264,0.12-2.674,1.167c-0.406,1.049,0.125,2.267,1.174,2.676l5.344,2.086l16.152,15.007
				c0.789,0.732,2.076,0.711,2.85-0.037C100.176,57.352,100.156,55.955,99.314,55.17z"/>
		</g>
	</g>
	<g>
		<g>
			<linearGradient id="SVGID_2_" gradientUnits="userSpaceOnUse" x1="-4.882812e-04" y1="55.043" x2="142.2168" y2="55.043">
				<stop  offset="0" style="stop-color:#8162AA"/>
				<stop  offset="1" style="stop-color:#C860A5"/>
			</linearGradient>
			<path fill="url(#SVGID_2_)" d="M130.252,5.65c0.969-0.6,1.268-1.871,0.666-2.841c-0.6-0.969-1.873-1.266-2.842-0.665
				l-11.203,6.892c-0.879,0.729-0.998,2.029-0.273,2.908c0.727,0.878,2.027,1,2.904,0.273L130.252,5.65z M95.174,22.744
				c-0.982,0.605-1.268,1.95-0.621,2.909l2.666,3.945l-1.248,0.724l-21.838-6.364c-0.34-0.098-0.705-0.11-1.047-0.027l-19.212,4.493
				c-0.048-0.026-0.097-0.048-0.148-0.066l-9.768-3.815l1.235-1.931c0.619-0.954,0.342-2.221-0.605-2.843L14.807,0.339
				c-0.956-0.628-2.233-0.358-2.854,0.598c-0.624,0.953-0.355,2.233,0.599,2.854l28.065,18.316L13.434,64.447L3.122,58.291
				c-0.98-0.582-2.244-0.264-2.828,0.717c-0.588,0.977-0.265,2.244,0.711,2.83l12.033,7.176c0.943,0.564,2.196,0.268,2.795-0.654
				l4.537-7.078l6.989,5.986l-1.148,1.234c-3.256,3.494-3.069,8.99,0.429,12.25c1.849,1.721,4.406,2.555,6.912,2.266
				c-0.112,2.527,0.893,5.01,2.745,6.738c1.85,1.725,4.404,2.559,6.916,2.266c-0.113,2.533,0.888,5.014,2.741,6.742
				c1.855,1.727,4.399,2.557,6.916,2.268c-0.113,2.529,0.892,5.01,2.744,6.738c2.695,2.514,6.82,3.045,10.059,1.275
				c0.815-0.443,1.556-1.021,2.188-1.701l1.829-1.961l1,0.924c2.697,2.508,6.824,3.029,10.057,1.26
				c0.816-0.449,1.557-1.027,2.191-1.709c1.258-1.354,1.994-3.006,2.229-4.711c0.611,0.283,1.254,0.5,1.918,0.633
				c2.936,0.586,6.023-0.406,8.062-2.6c1.23-1.322,2-2.957,2.238-4.707c0.609,0.281,1.25,0.496,1.908,0.627
				c2.941,0.59,6.029-0.404,8.066-2.602c1.232-1.32,2-2.957,2.234-4.711c0.617,0.285,1.262,0.5,1.916,0.629
				c2.859,0.572,5.941-0.305,8.066-2.594c3.254-3.5,3.047-8.994-0.449-12.248l-1.217-1.129l5.621-3.926l3.488,5.16
				c0.615,0.908,1.871,1.176,2.795,0.602l11.424-7.066c0.969-0.6,1.268-1.871,0.672-2.842c-0.604-0.971-1.875-1.27-2.844-0.668
				l-9.738,6.023L99.174,25.12l8.27-5.096c0.969-0.602,1.268-1.874,0.666-2.843c-0.604-0.966-1.875-1.265-2.844-0.665L95.174,22.744
				z M35.87,77.506c-1.708,1.832-4.582,1.936-6.416,0.227c-1.834-1.707-1.93-4.586-0.226-6.412l15.013-16.099
				c1.674-1.799,4.521-1.924,6.353-0.285c1.889,1.699,1.892,4.755,0.186,6.583L35.87,77.506z M45.524,86.516
				c-1.704,1.83-4.581,1.93-6.413,0.225c-1.808-1.688-1.911-4.605-0.223-6.416l12.008-12.879c1.677-1.793,4.524-1.924,6.35-0.285
				c1.893,1.699,1.895,4.758,0.192,6.586L45.524,86.516z M55.187,95.52c-0.829,0.889-1.952,1.4-3.163,1.443
				c-1.212,0.043-2.366-0.391-3.254-1.217c-1.809-1.686-1.914-4.605-0.222-6.416l9.005-9.658c1.675-1.797,4.522-1.926,6.35-0.285
				c1.891,1.697,1.895,4.756,0.188,6.586L55.187,95.52z M70.748,98.199l-5.905,6.328c-1.684,1.809-4.606,1.914-6.417,0.225
				c-1.809-1.686-1.91-4.604-0.223-6.42l6.006-6.434c1.673-1.797,4.523-1.924,6.35-0.283C72.449,93.309,72.451,96.367,70.748,98.199
				z M114.816,69.572L106.02,61.4c-0.816-0.756-2.158-0.707-2.914,0.107c-0.762,0.816-0.709,2.16,0.105,2.912l13.105,12.178
				c1.832,1.703,1.938,4.58,0.232,6.414c-1.701,1.836-4.58,1.941-6.412,0.238L96.084,70.191c-0.836-0.775-2.143-0.729-2.916,0.107
				c-0.777,0.836-0.73,2.143,0.104,2.918l10.83,10.059c1.814,1.684,1.922,4.602,0.238,6.416c-1.686,1.809-4.605,1.924-6.42,0.236
				l-9.811-9.115c-0.838-0.779-2.141-0.73-2.916,0.104c-0.775,0.836-0.729,2.143,0.107,2.918l6.588,6.121
				c1.812,1.682,1.924,4.6,0.236,6.412c-1.682,1.814-4.604,1.924-6.414,0.24c0,0-5.795-5.381-5.852-5.422
				c-0.832-0.633-2.029-0.541-2.754,0.242c-0.775,0.832-0.727,2.139,0.105,2.916l2.467,2.289c1.832,1.703,1.939,4.58,0.234,6.414
				c-1.682,1.812-4.6,1.922-6.416,0.238l-0.988-0.922l1.258-1.352c1.611-1.727,2.475-4.078,2.369-6.451
				c-0.102-2.344-1.105-4.48-2.818-6.02c-1.336-1.199-2.958-1.902-4.632-2.121c0.575-1.271,0.857-2.674,0.794-4.086
				c-0.104-2.342-1.102-4.48-2.816-6.02c-1.339-1.199-2.962-1.902-4.637-2.121c1.552-3.416,0.787-7.58-2.021-10.104
				c-1.338-1.197-2.962-1.9-4.634-2.119c1.55-3.422,0.79-7.583-2.021-10.105c-3.49-3.134-8.928-2.888-12.125,0.539L30.179,64.248
				l-7.554-6.473l19.057-29.695l6.621,2.587c-2.436,2.034-3.67,5.337-2.9,8.638c0.801,3.41,3.521,5.879,6.752,6.526
				c1.174,0.233,2.418,0.228,3.662-0.064l12.928-3.022c1.096-0.254,1.795-1.384,1.543-2.478c-0.259-1.097-1.387-1.796-2.482-1.54
				L54.877,41.75c-2.438,0.566-4.885-0.949-5.453-3.388c-0.571-2.437,0.947-4.883,3.385-5.454l20.687-4.838l22.17,6.459
				c0.053,0.02,0.111,0.033,0.17,0.045c0.49,0.098,1,0.014,1.439-0.24l2.26-1.309l21.682,32.072L114.816,69.572z"/>
		</g>
	</g>
</g>
</svg>
