<?xml version="1.0" encoding="utf-8"?>
<!-- Generator: Adobe Illustrator 16.0.0, SVG Export Plug-In . SVG Version: 6.00 Build 0)  -->
<!DOCTYPE svg PUBLIC "-//W3C//DTD SVG 1.1//EN" "http://www.w3.org/Graphics/SVG/1.1/DTD/svg11.dtd">
<svg version="1.1" id="Layer_1" xmlns="http://www.w3.org/2000/svg" xmlns:xlink="http://www.w3.org/1999/xlink" x="0px" y="0px"
	 width="170.504px" height="130px" viewBox="0 0 170.504 130" enable-background="new 0 0 170.504 130" xml:space="preserve">
<g>
	<linearGradient id="SVGID_1_" gradientUnits="userSpaceOnUse" x1="66.6265" y1="121.415" x2="71.2778" y2="121.415">
		<stop  offset="0" style="stop-color:#8162AA"/>
		<stop  offset="1" style="stop-color:#C860A5"/>
	</linearGradient>
	<path fill="url(#SVGID_1_)" d="M68.952,114.117c-1.284,0-2.325,1.04-2.325,2.325v9.944c0,1.285,1.041,2.326,2.325,2.326
		c1.287,0,2.326-1.041,2.326-2.326v-9.944C71.278,115.157,70.239,114.117,68.952,114.117z"/>
	<linearGradient id="SVGID_2_" gradientUnits="userSpaceOnUse" x1="101.4316" y1="121.415" x2="106.084" y2="121.415">
		<stop  offset="0" style="stop-color:#8162AA"/>
		<stop  offset="1" style="stop-color:#C860A5"/>
	</linearGradient>
	<path fill="url(#SVGID_2_)" d="M103.758,114.117c-1.285,0-2.326,1.04-2.326,2.325v9.944c0,1.285,1.041,2.326,2.326,2.326
		s2.326-1.041,2.326-2.326v-9.944C106.084,115.157,105.043,114.117,103.758,114.117z"/>
	<linearGradient id="SVGID_3_" gradientUnits="userSpaceOnUse" x1="125.668" y1="41.9727" x2="150.208" y2="41.9727">
		<stop  offset="0" style="stop-color:#8162AA"/>
		<stop  offset="1" style="stop-color:#C860A5"/>
	</linearGradient>
	<path fill="url(#SVGID_3_)" d="M149.172,41.627c-0.336-0.224-8.41-5.474-21.633-2.831c-1.09,0.217-1.871,1.173-1.871,2.28v2.487
		c0,1.285,1.043,2.328,2.326,2.328c1.285,0,2.326-1.043,2.326-2.328v-0.524c4.982-0.714,8.926-0.13,11.457,0.533
		c3.049,0.804,4.768,1.895,4.824,1.932c0.396,0.26,0.84,0.388,1.279,0.388c0.752,0,1.49-0.368,1.938-1.038
		C150.529,43.785,150.242,42.341,149.172,41.627z"/>
	<linearGradient id="SVGID_4_" gradientUnits="userSpaceOnUse" x1="-4.882812e-04" y1="76.2725" x2="170.0977" y2="76.2725">
		<stop  offset="0" style="stop-color:#8162AA"/>
		<stop  offset="1" style="stop-color:#C860A5"/>
	</linearGradient>
	<path fill="url(#SVGID_4_)" d="M163.748,81.832l-11.822-4.433c-1.027-0.387-1.717-1.38-1.717-2.479v-5.965
		c0.508-0.399,0.996-0.834,1.467-1.292c3.865-3.747,5.99-8.773,5.99-14.158v-4.421l0.666-1.333c1.191-2.381,1.822-5.049,1.822-7.709
		V26.16c0-1.285-1.043-2.328-2.326-2.328h-25.904c-8.934,0-16.199,7.269-16.199,16.211c0,2.66,0.629,5.328,1.82,7.709l0.666,1.333
		v3.69c0,6.4,2.928,12.184,7.457,15.957v6.188c0,1.097-0.689,2.092-1.717,2.479l-10.584,3.968
		c-1.246-4.559-2.285-10.545-2.311-16.894c-0.055-12.776-9.881-23.685-22.371-24.833c-1.549-0.141-3.111-0.141-4.66,0
		c-12.492,1.148-22.319,12.057-22.37,24.833c-0.03,6.815-1.227,13.212-2.592,17.874c-1.752-5.726-1.396-13.666-1.066-20.896
		c0.207-4.561,0.395-8.869,0.124-12.679h0.052c-0.053-12.776-11.197-23.688-23.689-24.835c-1.547-0.14-3.111-0.14-4.66,0
		C17.46,25.075,6.435,35.777,6.158,48.386L6.15,48.385c-0.312,3.899-0.109,8.354,0.105,13.066c0.407,8.92,0.85,18.908-2.672,24.498
		C1.369,87.777,0,90.529,0,93.49v17.205c0,1.285,1.041,2.326,2.328,2.326c1.283,0,2.324-1.041,2.324-2.326V93.49
		c0-1.133,0.387-2.202,1.043-3.076l0.168,0.154c0.393-0.424,0.752-0.874,1.091-1.34c0.321-0.213,0.659-0.404,1.028-0.543
		l11.822-4.436c0.642-0.238,1.229-0.568,1.764-0.963l8.266,6.198v21.21c0,1.285,1.039,2.326,2.324,2.326s2.327-1.041,2.327-2.326
		v-21.21l8.264-6.198c0.535,0.395,1.124,0.725,1.765,0.963l11.821,4.436l0.222-0.592c0.249,0.412,0.516,0.811,0.798,1.198
		c0.235,1.182,0.903,2.272,1.964,3.017c1.941,1.359,5.838,3.65,12.036,5.416l-9.262,4.633c-3.337,1.668-5.41,5.02-5.41,8.75v15.279
		c0,1.285,1.041,2.326,2.325,2.326c1.285,0,2.328-1.041,2.328-2.326v-15.279c0-1.956,1.086-3.714,2.836-4.59l7.343-3.672
		c3.08,5.191,8.729,8.465,14.841,8.465c6.164,0,11.77-3.258,14.842-8.464l7.34,3.671c1.752,0.876,2.838,2.634,2.838,4.59v15.279
		c0,1.285,1.041,2.326,2.328,2.326c1.283,0,2.324-1.041,2.324-2.326v-15.279c0-3.729-2.072-7.082-5.408-8.75l-9.262-4.633
		c6.195-1.766,10.094-4.057,12.035-5.416c1.867-1.311,2.566-3.682,1.703-5.768c-0.097-0.234-0.195-0.485-0.294-0.741l10.784-4.045
		c0.641-0.239,1.227-0.569,1.762-0.966l8.264,6.2v21.21c0,1.286,1.043,2.326,2.328,2.326s2.324-1.04,2.324-2.326v-21.21l8.266-6.2
		c0.535,0.396,1.121,0.727,1.762,0.966l11.824,4.435c1.992,0.748,3.33,2.679,3.33,4.804v17.206c0,1.286,1.043,2.326,2.328,2.326
		c1.283,0,2.324-1.04,2.324-2.326V90.993C170.098,86.939,167.545,83.259,163.748,81.832z M32.158,85.415l-7.92-5.942
		c0.194-0.657,0.301-1.348,0.301-2.056V74.21c2.381,0.997,4.955,1.522,7.611,1.522c0.203,0,0.407-0.005,0.613-0.01
		c2.477-0.073,4.838-0.641,7.014-1.6v3.294c0,0.708,0.105,1.398,0.302,2.056L32.158,85.415z M46.146,79.895
		c-1.027-0.383-1.719-1.381-1.719-2.478v-6.009c4.536-3.616,7.456-9.178,7.456-15.416c0-1.287-1.042-2.327-2.326-2.327
		c-1.286,0-2.325,1.04-2.325,2.327c0,8.238-6.647,14.946-14.859,15.064l-0.201-0.012l0.059-0.014c-0.398,0-0.788-0.03-1.179-0.06
		l-0.415-0.026c-7.566-0.8-13.482-7.217-13.482-14.99c0-1.284-1.04-2.326-2.326-2.326c-1.285,0-2.326,1.042-2.326,2.326
		c0,5.583,2.338,10.625,6.08,14.217l-0.162-0.011c0.471,0.458,0.961,0.89,1.469,1.294v5.962c0,1.099-0.691,2.095-1.717,2.478
		l-8.346,3.131c1.741-6.285,1.388-14.123,1.037-21.784c-0.207-4.552-0.4-8.847-0.116-12.449h0.042
		c0.042-10.407,9.331-19.29,19.463-20.218c1.266-0.119,2.541-0.119,3.807,0c10.117,0.928,19.393,9.786,19.461,20.176l-0.014,0.001
		c0.289,3.612,0.092,7.925-0.117,12.49c-0.348,7.651-0.701,15.476,1.035,21.758L46.146,79.895z M86.355,106.658
		c-4.351,0-8.379-2.274-10.662-5.901l1.496-0.749c2.485-1.242,4.033-3.746,4.033-6.525v-2.741c1.636,0.442,3.357,0.682,5.132,0.682
		c1.756,0,3.479-0.235,5.131-0.685v2.744c0,2.779,1.545,5.283,4.035,6.525l1.502,0.752
		C94.744,104.396,90.744,106.658,86.355,106.658z M110.723,88.5c-2.053,1.437-6.643,4.068-14.486,5.691
		c-0.062-0.228-0.098-0.466-0.098-0.709v-4.667c3.029-1.731,5.6-4.257,7.379-7.388c3.264-5.742,2.084-13.151-2.803-17.622
		c-3.426-3.134-9.562-6.868-19.332-6.868c-0.617,0-1.208,0.245-1.644,0.682l-4.974,4.973c-0.908,0.907-0.908,2.38,0,3.289
		c0.907,0.907,2.383,0.907,3.291,0l4.276-4.279c6.217,0.174,11.34,2.068,15.243,5.637c3.299,3.02,4.098,8.02,1.898,11.891
		c-2.68,4.713-7.705,7.641-13.119,7.641c-8.313,0-15.078-6.764-15.078-15.076c0-1.285-1.039-2.326-2.324-2.326
		s-2.327,1.041-2.327,2.326c0,7.318,4.011,13.715,9.944,17.119v4.668c0,0.244-0.034,0.483-0.098,0.711
		c-7.842-1.623-12.433-4.255-14.485-5.691c-0.043-0.031-0.11-0.096-0.076-0.176c2.003-4.826,4.354-13.96,4.394-23.831
		c0.044-10.406,8.015-19.286,18.146-20.218c1.265-0.119,2.541-0.119,3.806,0c10.131,0.932,18.104,9.812,18.145,20.218
		c0.041,9.871,2.396,19.007,4.396,23.831C110.832,88.406,110.766,88.469,110.723,88.5z M137.939,82.918l-7.922-5.94
		c0.195-0.659,0.303-1.348,0.303-2.057v-3.294c2.176,0.959,4.539,1.525,7.014,1.6c0.205,0.006,0.41,0.009,0.611,0.009
		c2.658,0,5.232-0.524,7.615-1.522v3.208c0,0.709,0.104,1.397,0.301,2.057L137.939,82.918z M148.438,64.329
		c-2.951,2.861-6.842,4.369-10.965,4.247c-8.055-0.242-14.611-7.328-14.611-15.797v-4.246c0-0.359-0.082-0.715-0.244-1.039
		l-0.91-1.822c-0.869-1.737-1.33-3.688-1.33-5.641c0-6.365,5.182-11.545,11.547-11.545h23.578v11.557
		c0,1.941-0.459,3.892-1.33,5.629l-0.912,1.822c-0.16,0.324-0.242,0.68-0.242,1.039v4.973
		C153.018,57.621,151.391,61.463,148.438,64.329z"/>
	<linearGradient id="SVGID_5_" gradientUnits="userSpaceOnUse" x1="118.2109" y1="101.9844" x2="122.8613" y2="101.9844">
		<stop  offset="0" style="stop-color:#8162AA"/>
		<stop  offset="1" style="stop-color:#C860A5"/>
	</linearGradient>
	<path fill="url(#SVGID_5_)" d="M120.535,93.444c-1.285,0-2.324,1.039-2.324,2.326v12.429c0,1.286,1.039,2.326,2.324,2.326
		c1.287,0,2.326-1.04,2.326-2.326V95.771C122.861,94.483,121.822,93.444,120.535,93.444z"/>
	<linearGradient id="SVGID_6_" gradientUnits="userSpaceOnUse" x1="153.0176" y1="101.9844" x2="157.666" y2="101.9844">
		<stop  offset="0" style="stop-color:#8162AA"/>
		<stop  offset="1" style="stop-color:#C860A5"/>
	</linearGradient>
	<path fill="url(#SVGID_6_)" d="M155.342,93.444c-1.281,0-2.324,1.039-2.324,2.326v12.429c0,1.286,1.043,2.326,2.324,2.326
		c1.283,0,2.324-1.04,2.324-2.326V95.771C157.666,94.483,156.625,93.444,155.342,93.444z"/>
	<linearGradient id="SVGID_7_" gradientUnits="userSpaceOnUse" x1="98.6104" y1="19.4922" x2="115.5967" y2="19.4922">
		<stop  offset="0" style="stop-color:#8162AA"/>
		<stop  offset="1" style="stop-color:#C860A5"/>
	</linearGradient>
	<path fill="url(#SVGID_7_)" d="M101.545,28.463l13.652-15.742c0.598-0.69,0.516-1.742-0.186-2.351
		c-0.701-0.606-1.754-0.54-2.354,0.149L99.01,26.263c-0.598,0.69-0.516,1.741,0.186,2.349
		C99.895,29.221,100.949,29.154,101.545,28.463z"/>
	<linearGradient id="SVGID_8_" gradientUnits="userSpaceOnUse" x1="58.4321" y1="19.4922" x2="75.4185" y2="19.4922">
		<stop  offset="0" style="stop-color:#8162AA"/>
		<stop  offset="1" style="stop-color:#C860A5"/>
	</linearGradient>
	<path fill="url(#SVGID_8_)" d="M72.481,28.463c0.598,0.691,1.652,0.758,2.352,0.148c0.701-0.607,0.785-1.658,0.186-2.349
		L61.369,10.52c-0.598-0.689-1.65-0.756-2.353-0.149c-0.698,0.608-0.783,1.66-0.187,2.351L72.481,28.463z"/>
	<linearGradient id="SVGID_9_" gradientUnits="userSpaceOnUse" x1="85.1309" y1="12.0718" x2="88.5273" y2="12.0718">
		<stop  offset="0" style="stop-color:#8162AA"/>
		<stop  offset="1" style="stop-color:#C860A5"/>
	</linearGradient>
	<path fill="url(#SVGID_9_)" d="M86.811,24.144c0.926,0.004,1.678-0.736,1.678-1.648l0.039-20.839
		C88.531,0.744,87.779,0.004,86.852,0c-0.928-0.001-1.68,0.738-1.682,1.65l-0.039,20.837C85.131,23.4,85.881,24.141,86.811,24.144z"
		/>
	<linearGradient id="SVGID_10_" gradientUnits="userSpaceOnUse" x1="47.3882" y1="104.4805" x2="52.0396" y2="104.4805">
		<stop  offset="0" style="stop-color:#8162AA"/>
		<stop  offset="1" style="stop-color:#C860A5"/>
	</linearGradient>
	<path fill="url(#SVGID_10_)" d="M49.713,95.94c-1.285,0-2.325,1.04-2.325,2.327v12.428c0,1.285,1.04,2.326,2.325,2.326
		c1.286,0,2.326-1.041,2.326-2.326V98.268C52.04,96.98,51,95.94,49.713,95.94z"/>
	<linearGradient id="SVGID_11_" gradientUnits="userSpaceOnUse" x1="12.5825" y1="104.4805" x2="17.2349" y2="104.4805">
		<stop  offset="0" style="stop-color:#8162AA"/>
		<stop  offset="1" style="stop-color:#C860A5"/>
	</linearGradient>
	<path fill="url(#SVGID_11_)" d="M14.908,95.94c-1.285,0-2.325,1.04-2.325,2.327v12.428c0,1.285,1.04,2.326,2.325,2.326
		c1.283,0,2.327-1.041,2.327-2.326V98.268C17.235,96.98,16.191,95.94,14.908,95.94z"/>
	<linearGradient id="SVGID_12_" gradientUnits="userSpaceOnUse" x1="20.0815" y1="44.5381" x2="44.6226" y2="44.5381">
		<stop  offset="0" style="stop-color:#8162AA"/>
		<stop  offset="1" style="stop-color:#C860A5"/>
	</linearGradient>
	<path fill="url(#SVGID_12_)" d="M42.753,41.363c-13.225-2.645-21.297,2.607-21.635,2.831c-1.07,0.713-1.359,2.158-0.646,3.226
		c0.447,0.672,1.187,1.036,1.938,1.036c0.438,0,0.883-0.124,1.275-0.386c0.057-0.036,1.776-1.127,4.827-1.93
		c2.528-0.664,6.474-1.25,11.456-0.536v0.526c0,1.283,1.042,2.325,2.326,2.325s2.326-1.042,2.326-2.325v-2.486
		C44.623,42.536,43.839,41.58,42.753,41.363z"/>
</g>
</svg>
