<?xml version="1.0" encoding="utf-8"?>
<!-- Generator: Adobe Illustrator 16.0.0, SVG Export Plug-In . SVG Version: 6.00 Build 0)  -->
<!DOCTYPE svg PUBLIC "-//W3C//DTD SVG 1.1//EN" "http://www.w3.org/Graphics/SVG/1.1/DTD/svg11.dtd">
<svg version="1.1" id="Layer_1" xmlns="http://www.w3.org/2000/svg" xmlns:xlink="http://www.w3.org/1999/xlink" x="0px" y="0px"
	 width="68px" height="58px" viewBox="0 0 68 58" enable-background="new 0 0 68 58" xml:space="preserve">
<path opacity="1" fill="#FFFFFF" d="M0,0v58h68V0H0z M58.804,40.456c-0.334,1.432-1.43,2.278-2.912,2.324
	c-0.689,0.023-1.379,0.025-2.062-0.114c-2.363-0.479-4.728-0.438-7.091-0.002c-0.715,0.13-1.436,0.14-2.156,0.116
	c-1.682-0.048-2.811-1.179-2.872-2.846c-0.072-1.963,0.837-3.118,2.612-3.33c0.835-0.097,1.255-0.588,1.099-1.394
	c-0.778-4.061-1.58-8.118-2.513-12.185c-0.434,2.001-0.876,4.001-1.304,6.004c-0.735,3.443-1.46,6.883-2.192,10.329
	c-0.538,2.532-1.302,3.237-3.889,3.488c-1.25,0.118-2.509,0.101-3.755-0.081c-1.691-0.245-2.595-1.153-2.995-3.018
	c-1.131-5.267-2.251-10.539-3.37-15.805c-0.065-0.305-0.087-0.615-0.335-0.941c-0.781,3.985-1.57,7.904-2.311,11.831
	c-0.251,1.329,0.008,1.613,1.315,1.775c1.422,0.182,2.388,1.506,2.358,3.24c-0.027,1.645-1.176,2.842-2.812,2.933
	c-1.641,0.093-3.246-0.241-4.859-0.44c-1.56-0.191-3.051,0.209-4.574,0.34c-0.374,0.033-0.748,0.093-1.122,0.099
	c-3.171,0.069-4.848-2.419-3.622-5.363c0.428-1.035,1.428-1.651,2.602-1.304c1.365,0.403,1.913-0.311,2.223-1.349
	c0.682-2.297,1.279-4.619,1.892-6.936c0.844-3.191,1.661-6.389,2.507-9.578c0.242-0.906,0.545-1.807,1.286-2.45
	c0.702-0.612,1.544-0.833,2.456-0.63c1.695,0.382,3.356,0.597,5.079-0.002c1.008-0.35,2.073,0.329,2.582,1.399
	c0.621,1.308,0.814,2.743,1.125,4.138c0.914,4.071,1.791,8.149,2.684,12.224c0.02,0.085,0.069,0.162,0.23,0.529
	c0.771-3.508,1.48-6.752,2.199-9.99c0.419-1.885,0.841-3.769,1.295-5.645c0.123-0.508,0.324-1.01,0.575-1.474
	c0.556-1.027,1.554-1.458,2.698-1.124c1.26,0.369,2.497,0.459,3.793,0.158c2.82-0.653,4.062,0.133,4.793,2.937
	c1.339,5.122,2.677,10.243,4.021,15.36c0.096,0.361,0.206,0.719,0.34,1.068c0.536,1.396,0.935,1.615,2.407,1.351
	c1.354-0.241,2.07,0.186,2.493,1.493C59.028,38.538,59.022,39.51,58.804,40.456z"/>
</svg>
