<?xml version="1.0" encoding="utf-8"?>
<!-- Generator: Adobe Illustrator 16.0.0, SVG Export Plug-In . SVG Version: 6.00 Build 0)  -->
<!DOCTYPE svg PUBLIC "-//W3C//DTD SVG 1.1//EN" "http://www.w3.org/Graphics/SVG/1.1/DTD/svg11.dtd">
<svg version="1.1" id="Layer_1" xmlns="http://www.w3.org/2000/svg" xmlns:xlink="http://www.w3.org/1999/xlink" x="0px" y="0px"
	 width="116.896px" height="107px" viewBox="0 0 116.896 107" enable-background="new 0 0 116.896 107" xml:space="preserve">
<g>
	<linearGradient id="SVGID_1_" gradientUnits="userSpaceOnUse" x1="-4.882812e-04" y1="53.4009" x2="117.04" y2="53.4009">
		<stop  offset="0" style="stop-color:#8162AA"/>
		<stop  offset="1" style="stop-color:#C860A5"/>
	</linearGradient>
	<path fill="url(#SVGID_1_)" d="M76.808,0c-20.579,0-37.471,14.411-38.78,32.563C18.431,33.562,0,47.917,0,67.331
		c0,8.113,3.161,15.979,8.915,22.205c1.14,4.768-0.243,9.82-3.674,13.305c-0.653,0.662-0.851,1.662-0.496,2.528
		s1.188,1.433,2.112,1.433c6.52,0,12.804-2.598,17.471-7.17c4.549,1.573,10.479,2.527,15.906,2.527
		c20.576,0,37.466-14.408,38.773-32.557c4.787-0.217,9.768-1.113,13.703-2.477c4.67,4.576,10.953,7.171,17.475,7.171
		c0.922,0,1.756-0.566,2.109-1.433c0.354-0.867,0.156-1.865-0.494-2.529c-3.432-3.484-4.812-8.538-3.678-13.305
		c5.758-6.227,8.918-14.091,8.918-22.203C117.04,14.654,97.19,0,76.808,0z M40.234,97.515c-5.396,0-11.543-1.075-15.666-2.738
		c-0.88-0.357-1.887-0.123-2.528,0.589c-2.759,3.063-6.351,5.201-10.259,6.183c2.153-4.191,2.703-9.135,1.394-13.819
		c-0.104-0.368-0.297-0.704-0.56-0.98c-5.187-5.426-8.043-12.319-8.043-19.417c0-16.359,16.33-30.182,35.662-30.182
		c18.251,0,34.289,12.893,34.289,30.182C74.522,83.977,59.14,97.515,40.234,97.515z M104.427,54.243
		c-0.264,0.277-0.457,0.613-0.561,0.98c-1.311,4.685-0.76,9.627,1.396,13.82c-3.914-0.981-7.5-3.119-10.26-6.183
		c-0.643-0.712-1.652-0.948-2.535-0.592c-3.568,1.442-8.658,2.442-13.467,2.683c-0.666-8.781-4.979-17.033-12.352-23.16h14.797
		c1.264,0,2.287-1.04,2.287-2.32c0-1.284-1.023-2.322-2.287-2.322h-21.82c-5.187-2.684-11.015-4.247-17.014-4.576
		C43.925,16.98,58.763,4.643,76.808,4.643c19.332,0,35.662,13.823,35.662,30.185C112.47,41.923,109.612,48.817,104.427,54.243z"/>
	<g>
		<g>
			<linearGradient id="SVGID_2_" gradientUnits="userSpaceOnUse" x1="89.0361" y1="39.2749" x2="100.7393" y2="39.2749">
				<stop  offset="0" style="stop-color:#8162AA"/>
				<stop  offset="1" style="stop-color:#C860A5"/>
			</linearGradient>
			<path fill="url(#SVGID_2_)" d="M89.036,39.273c0,1.241,1.006,2.251,2.248,2.251h7.205c1.242,0,2.25-1.01,2.25-2.251
				s-1.008-2.248-2.25-2.248h-7.205C90.042,37.025,89.036,38.032,89.036,39.273z"/>
		</g>
	</g>
	<g>
		<g>
			<linearGradient id="SVGID_3_" gradientUnits="userSpaceOnUse" x1="50.6108" y1="72.3809" x2="62.3135" y2="72.3809">
				<stop  offset="0" style="stop-color:#8162AA"/>
				<stop  offset="1" style="stop-color:#C860A5"/>
			</linearGradient>
			<path fill="url(#SVGID_3_)" d="M50.611,72.381c0,1.241,1.004,2.247,2.248,2.247h7.203c1.244,0,2.252-1.006,2.252-2.247
				c0-1.243-1.008-2.248-2.252-2.248h-7.203C51.615,70.133,50.611,71.138,50.611,72.381z"/>
		</g>
	</g>
	<g>
		<g>
			<linearGradient id="SVGID_4_" gradientUnits="userSpaceOnUse" x1="16.3228" y1="72.3809" x2="45.4927" y2="72.3809">
				<stop  offset="0" style="stop-color:#8162AA"/>
				<stop  offset="1" style="stop-color:#C860A5"/>
			</linearGradient>
			<path fill="url(#SVGID_4_)" d="M16.323,72.381c0,1.241,1.005,2.247,2.249,2.247h24.673c1.24,0,2.248-1.006,2.248-2.247
				c0-1.243-1.008-2.248-2.248-2.248H18.572C17.328,70.133,16.323,71.138,16.323,72.381z"/>
		</g>
	</g>
	<g>
		<g>
			<g>
				<linearGradient id="SVGID_5_" gradientUnits="userSpaceOnUse" x1="16.3228" y1="60.4902" x2="28.0259" y2="60.4902">
					<stop  offset="0" style="stop-color:#8162AA"/>
					<stop  offset="1" style="stop-color:#C860A5"/>
				</linearGradient>
				<path fill="url(#SVGID_5_)" d="M25.775,58.241h-7.203c-1.244,0-2.249,1.01-2.249,2.251c0,1.239,1.005,2.246,2.249,2.246h7.203
					c1.246,0,2.251-1.007,2.251-2.246C28.026,59.251,27.021,58.241,25.775,58.241z"/>
			</g>
		</g>
		<g>
			<g>
				<linearGradient id="SVGID_6_" gradientUnits="userSpaceOnUse" x1="33.1421" y1="60.4902" x2="62.3135" y2="60.4902">
					<stop  offset="0" style="stop-color:#8162AA"/>
					<stop  offset="1" style="stop-color:#C860A5"/>
				</linearGradient>
				<path fill="url(#SVGID_6_)" d="M60.065,58.241H35.39c-1.24,0-2.248,1.01-2.248,2.251c0,1.239,1.008,2.246,2.248,2.246h24.675
					c1.24,0,2.248-1.007,2.248-2.246C62.313,59.251,61.306,58.241,60.065,58.241z"/>
			</g>
		</g>
	</g>
	<g>
		<g>
			<g>
				<linearGradient id="SVGID_7_" gradientUnits="userSpaceOnUse" x1="54.7495" y1="27.3828" x2="66.4502" y2="27.3828">
					<stop  offset="0" style="stop-color:#8162AA"/>
					<stop  offset="1" style="stop-color:#C860A5"/>
				</linearGradient>
				<path fill="url(#SVGID_7_)" d="M64.202,25.134h-7.206c-1.241,0-2.247,1.008-2.247,2.25c0,1.24,1.006,2.248,2.247,2.248h7.206
					c1.246,0,2.248-1.008,2.248-2.248C66.45,26.142,65.448,25.134,64.202,25.134z"/>
			</g>
		</g>
		<g>
			<g>
				<linearGradient id="SVGID_8_" gradientUnits="userSpaceOnUse" x1="71.5674" y1="27.3828" x2="100.7393" y2="27.3828">
					<stop  offset="0" style="stop-color:#8162AA"/>
					<stop  offset="1" style="stop-color:#C860A5"/>
				</linearGradient>
				<path fill="url(#SVGID_8_)" d="M98.489,25.134H73.815c-1.24,0-2.248,1.008-2.248,2.25c0,1.24,1.008,2.248,2.248,2.248h24.674
					c1.242,0,2.25-1.008,2.25-2.248C100.739,26.142,99.731,25.134,98.489,25.134z"/>
			</g>
		</g>
	</g>
</g>
</svg>
