<?xml version="1.0" encoding="utf-8"?>
<!-- Generator: Adobe Illustrator 16.0.0, SVG Export Plug-In . SVG Version: 6.00 Build 0)  -->
<!DOCTYPE svg PUBLIC "-//W3C//DTD SVG 1.1//EN" "http://www.w3.org/Graphics/SVG/1.1/DTD/svg11.dtd">
<svg version="1.1" id="Layer_1" xmlns="http://www.w3.org/2000/svg" xmlns:xlink="http://www.w3.org/1999/xlink" x="0px" y="0px"
	 width="118px" height="118px" viewBox="0 0 118 118" enable-background="new 0 0 118 118" xml:space="preserve">
<g>
	<g>
		<g>
			<linearGradient id="SVGID_1_" gradientUnits="userSpaceOnUse" x1="68.3418" y1="45.561" x2="72.8984" y2="45.561">
				<stop  offset="0" style="stop-color:#8162AA"/>
				<stop  offset="1" style="stop-color:#C860A5"/>
			</linearGradient>
			<path fill="url(#SVGID_1_)" d="M70.621,43.282c-1.258,0-2.279,1.021-2.279,2.278c0,1.258,1.021,2.279,2.279,2.279
				c1.256,0,2.277-1.021,2.277-2.279C72.898,44.304,71.877,43.282,70.621,43.282z"/>
		</g>
	</g>
	<g>
		<g>
			<linearGradient id="SVGID_2_" gradientUnits="userSpaceOnUse" x1="0" y1="58.3193" x2="116.6357" y2="58.3193">
				<stop  offset="0" style="stop-color:#8162AA"/>
				<stop  offset="1" style="stop-color:#C860A5"/>
			</linearGradient>
			<path fill="url(#SVGID_2_)" d="M113.969,101.082L83.561,70.675c4.953-7.464,7.562-16.102,7.562-25.114
				C91.123,20.438,70.685,0,45.562,0S0,20.438,0,45.561c0,25.122,20.438,45.562,45.562,45.562c9.01,0,17.651-2.611,25.113-7.564
				l8.404,8.408c0.003,0,0.003,0,0.003,0.002l22,21.998c1.723,1.723,4.012,2.672,6.443,2.672c2.434,0,4.721-0.949,6.441-2.672
				c1.723-1.72,2.669-4.009,2.669-6.443C116.636,105.09,115.689,102.802,113.969,101.082z M69.602,78.76L69.602,78.76
				c-7.029,5.107-15.343,7.807-24.04,7.807c-22.61,0-41.005-18.396-41.005-41.006c0-22.611,18.395-41.005,41.005-41.005
				c22.61,0,41.006,18.394,41.006,41.005c0,8.696-2.7,17.01-7.808,24.043C76.203,73.123,73.124,76.205,69.602,78.76z M74.383,80.824
				c2.359-1.929,4.512-4.086,6.441-6.441l6.463,6.465c-1.965,2.317-4.121,4.476-6.441,6.44L74.383,80.824z M110.746,110.745
				c-0.861,0.861-2.004,1.337-3.221,1.337s-2.359-0.476-3.221-1.337L84.076,90.518c2.307-1.98,4.463-4.135,6.441-6.442
				l20.229,20.229c0.862,0.859,1.334,2.004,1.334,3.219C112.08,108.742,111.608,109.885,110.746,110.745z"/>
		</g>
	</g>
	<g>
		<g>
			<linearGradient id="SVGID_3_" gradientUnits="userSpaceOnUse" x1="9.1108" y1="45.5605" x2="82.0098" y2="45.5605">
				<stop  offset="0" style="stop-color:#8162AA"/>
				<stop  offset="1" style="stop-color:#C860A5"/>
			</linearGradient>
			<path fill="url(#SVGID_3_)" d="M45.562,9.111c-20.099,0-36.451,16.351-36.451,36.449c0,20.1,16.352,36.449,36.451,36.449
				S82.01,65.66,82.01,45.561C82.01,25.462,65.66,9.111,45.562,9.111z M45.562,77.454c-17.586,0-31.895-14.306-31.895-31.894
				c0-17.585,14.309-31.893,31.895-31.893c17.587,0,31.892,14.308,31.892,31.893C77.453,63.148,63.148,77.454,45.562,77.454z"/>
		</g>
	</g>
	<g>
		<g>
			<linearGradient id="SVGID_4_" gradientUnits="userSpaceOnUse" x1="43.2832" y1="28.5498" x2="71.2441" y2="28.5498">
				<stop  offset="0" style="stop-color:#8162AA"/>
				<stop  offset="1" style="stop-color:#C860A5"/>
			</linearGradient>
			<path fill="url(#SVGID_4_)" d="M71.092,35.782c-1.963-5.105-5.379-9.472-9.877-12.624c-4.609-3.229-10.021-4.936-15.653-4.936
				c-1.258,0-2.278,1.021-2.278,2.279c0,1.258,1.021,2.277,2.278,2.277c9.362,0,17.911,5.884,21.276,14.637
				c0.349,0.904,1.21,1.461,2.127,1.461c0.271,0,0.548-0.047,0.814-0.152C70.957,38.275,71.543,36.955,71.092,35.782z"/>
		</g>
	</g>
</g>
</svg>
