<?xml version="1.0" encoding="utf-8"?>
<!-- Generator: Adobe Illustrator 16.0.0, SVG Export Plug-In . SVG Version: 6.00 Build 0)  -->
<!DOCTYPE svg PUBLIC "-//W3C//DTD SVG 1.1//EN" "http://www.w3.org/Graphics/SVG/1.1/DTD/svg11.dtd">
<svg version="1.1" id="Layer_1" xmlns="http://www.w3.org/2000/svg" xmlns:xlink="http://www.w3.org/1999/xlink" x="0px" y="0px"
	 width="323px" height="181px" viewBox="0 0 323 181" enable-background="new 0 0 323 181" xml:space="preserve">
<g>
	<path fill-rule="evenodd" clip-rule="evenodd" fill="#F2F2F9" d="M162.456,119.369c4.986-22.775,9.566-43.835,14.215-64.878
		c2.703-12.234,5.426-24.465,8.363-36.645c0.795-3.301,2.098-6.57,3.705-9.564c3.592-6.693,10.049-9.498,17.43-7.322
		c8.145,2.4,16.145,2.99,24.504,1.043c18.209-4.242,26.23,0.854,30.963,19.061c8.643,33.258,17.295,66.508,25.971,99.753
		c0.613,2.342,1.328,4.67,2.191,6.93c3.469,9.072,6.041,10.494,15.551,8.783c8.736-1.57,13.373,1.195,16.107,9.693
		c1.979,6.133,1.947,12.438,0.523,18.592c-2.156,9.289-9.227,14.795-18.807,15.104c-4.451,0.143-8.91,0.152-13.322-0.748
		c-15.262-3.117-30.535-2.848-45.801-0.018c-4.621,0.855-9.273,0.906-13.926,0.766c-10.867-0.326-18.162-7.668-18.553-18.49
		c-0.459-12.748,5.406-20.256,16.881-21.627c5.383-0.643,8.092-3.816,7.086-9.051c-5.033-26.371-10.207-52.714-16.223-79.128
		c-2.811,12.998-5.668,25.986-8.43,38.996c-4.748,22.349-9.428,44.707-14.158,67.06c-3.484,16.463-8.412,21.043-25.133,22.66
		c-8.062,0.783-16.195,0.66-24.233-0.51c-10.932-1.596-16.77-7.504-19.354-19.607c-7.31-34.203-14.541-68.42-21.768-102.642
		c-0.417-1.967-0.562-3.984-2.162-6.105c-5.05,25.877-10.144,51.326-14.934,76.833c-1.621,8.629,0.05,10.475,8.494,11.539
		c9.188,1.16,15.43,9.766,15.238,21.023c-0.181,10.668-7.598,18.459-18.162,19.057c-10.603,0.602-20.976-1.58-31.398-2.865
		c-10.072-1.244-19.709,1.369-29.54,2.211c-2.419,0.207-4.83,0.598-7.249,0.646c-20.48,0.436-31.311-15.715-23.398-34.834
		c2.775-6.717,9.218-10.727,16.813-8.471c8.813,2.619,12.36-2.018,14.356-8.758c4.406-14.918,8.265-30,12.221-45.048
		c5.449-20.717,10.728-41.48,16.195-62.191c1.554-5.893,3.523-11.727,8.305-15.918c4.537-3.98,9.976-5.4,15.853-4.076
		c10.957,2.471,21.688,3.863,32.822-0.02c6.507-2.271,13.392,2.131,16.674,9.076c4.014,8.506,5.258,17.816,7.274,26.871
		c5.898,26.436,11.564,52.926,17.339,79.39C161.103,116.49,161.427,116.996,162.456,119.369z"/>
</g>
</svg>
