<?xml version="1.0" encoding="utf-8"?>
<!-- Generator: Adobe Illustrator 16.0.0, SVG Export Plug-In . SVG Version: 6.00 Build 0)  -->
<!DOCTYPE svg PUBLIC "-//W3C//DTD SVG 1.1//EN" "http://www.w3.org/Graphics/SVG/1.1/DTD/svg11.dtd">
<svg version="1.1" id="Layer_1" xmlns="http://www.w3.org/2000/svg" xmlns:xlink="http://www.w3.org/1999/xlink" x="0px" y="0px"
	 width="480px" height="478px" viewBox="0 0 480 478" enable-background="new 0 0 480 478" xml:space="preserve">
<ellipse fill="#E8E6F1" cx="226.042" cy="418.008" rx="221.139" ry="59.009"/>
<g>
	
		<linearGradient id="SVGID_1_" gradientUnits="userSpaceOnUse" x1="-183.9253" y1="266.6465" x2="-227.6273" y2="135.9919" gradientTransform="matrix(0.9484 0.3172 -0.3172 0.9484 351.6553 129.668)">
		<stop  offset="0" style="stop-color:#DED3E5"/>
		<stop  offset="0.3803" style="stop-color:#D9D7EA"/>
		<stop  offset="1" style="stop-color:#D5DAEE"/>
	</linearGradient>
	<path opacity="0.8" fill="url(#SVGID_1_)" d="M180.286,316.299c-3.153,0.29-6.313-0.298-9.486-0.661
		c-8.011-0.904-15.551-2.033-23.18,0.328c-5.348,1.656-10.369,3.595-15.048,5.711c2.23-3.002,4.519-5.947,6.877-8.81
		c5.168-6.264,9.853-13.984,14.011-21.334c3.692-6.521,5.939-13.591,9.219-20.319c-1.262,0.306-2.427,1.581-3.633,2.36
		c-2.717,1.771-5.723,2.71-8.669,3.873c-7.438,2.938-14.521,5.437-20.582,11.308c-7.43,7.196-13.693,14.738-18.894,22.062
		c0.834-6.658,1.801-13.273,3.026-19.825c1.658-8.858,2.309-18.727,2.686-27.936c0.334-8.174-0.748-15.939-0.839-24.045
		c-0.912,1.061-1.342,2.931-2.006,4.382c-1.509,3.285-3.594,5.996-5.537,8.879c-4.907,7.262-9.7,13.918-12.256,22.973
		c-0.878,3.106-1.662,6.182-2.374,9.214c-1.435-7.704-3.817-15.559-6.242-22.827c-2.387-7.145-5.985-13.139-8.755-19.979
		c-0.517,1.418-0.311,3.26-0.463,4.876c-0.35,3.654-1.439,7.151-2.339,10.717c-2.27,8.987-4.639,17.391-4.079,26.56
		c0.393,6.421,1.083,12.522,1.99,18.27c-2.114-3.112-4.171-6.277-6.141-9.514c-4.314-7.086-9.953-13.891-15.372-20.025
		c-4.811-5.447-10.352-9.344-15.418-14.354c0.022,1.497,0.878,3.068,1.312,4.588c0.983,3.443,1.207,7.055,1.638,10.643
		c1.081,9.052,1.863,17.618,5.675,25.652c4.676,9.842,9.866,18.42,15.071,25.74c-5.461-2.201-10.865-4.552-16.164-7.183
		c-7.164-3.562-15.37-6.159-23.073-8.319c-6.832-1.92-13.593-2.145-20.446-3.559c0.722,1.238,2.219,2.084,3.32,3.117
		c2.488,2.34,4.385,5.233,6.448,7.994c5.21,6.974,9.926,13.705,17.088,18.327c25.646,16.557,50.116,21.692,62.453,22.293
		c0.114,0.427,0.23,0.81,0.341,1.134c0.145,0.034,0.291,0.066,0.438,0.1c1.084,2.093,2.34,4.088,3.935,5.361
		c6.396,5.104,14.759,0.481,20.278-2.92c11.151-6.873,22.29-13.731,34.075-19.088c6.908-3.137,13.812-7.807,20.102-12.393
		c5.58-4.066,9.963-9.309,15.217-13.757C183.19,315.588,181.677,316.173,180.286,316.299z"/>
	<linearGradient id="SVGID_2_" gradientUnits="userSpaceOnUse" x1="75.3965" y1="363.6152" x2="173.831" y2="387.3943">
		<stop  offset="0" style="stop-color:#D5DAEE"/>
		<stop  offset="1" style="stop-color:#D8BED2"/>
	</linearGradient>
	<path fill="url(#SVGID_2_)" d="M142.237,345.991c0,30.35-21.142,54.952-47.221,54.952c-26.078,0-47.217-24.603-47.217-54.952"/>
</g>
<polygon fill="#E5BDBB" points="224.926,433.142 224.337,415.429 222.357,398.48 203.113,382.395 204.585,408.637 218.181,433.142 
	"/>
<linearGradient id="SVGID_3_" gradientUnits="userSpaceOnUse" x1="197.9741" y1="427.6406" x2="228.105" y2="427.6406">
	<stop  offset="0" style="stop-color:#8162AA"/>
	<stop  offset="1" style="stop-color:#C860A5"/>
</linearGradient>
<path fill="url(#SVGID_3_)" d="M208.264,398.48c0,0-9.526,3.445-10.187,5.749c-0.667,2.3,1.942,13.907,6.575,25.151
	c4.634,11.248,7.837,17.766,11.096,22.113c3.256,4.349,8.496,7.604,10.724,3.237c1.856-3.645,1.652-6.811,1.601-13.691
	c-0.041-4.955-1.68-17.643-3.734-25.611c0,0,0.161,13.74-2.906,12.863c-3.07-0.875-6.511-3.656-9.473-10.545
	C209,410.858,208.264,398.48,208.264,398.48z"/>
<polygon fill="#E5BDBB" points="198.483,438.923 183.815,419.331 181.177,394.084 193.128,387.533 203.183,412.582 206.297,433.463 
	"/>
<path fill="#E5BDBB" d="M223.568,152.9c-11.401,16.489-11.466,22.652-10.119,28.158c1.343,5.503,14.498,10.324,21.257,12.343
	c6.756,2.016,24.53,2.92,31.549,3.519c7.191,0.614,19.191-0.14,24.502,0.276c5.309,0.42,3.832,1.441,3.832,1.441l16.764,6.314
	l20.404-3.369l-16.729-15.117c0,0-21.453,1.793-24.197,1.815c-2.742,0.022-19.023-6.108-29.297-7.867
	c-10.273-1.765-24.088-5.86-25.862-9.739c-1.352-2.955,1.564-12.117,2.938-17.774"/>
<path fill="#191F38" d="M256.422,411.524c0.863,1.379,3.299,1.413,5.436,0.069l0,0c2.137-1.342,3.168-3.544,2.303-4.923
	l-57.629-91.867c-0.868-1.379-3.303-1.412-5.44-0.07l0,0c-2.136,1.338-3.167,3.547-2.301,4.927L256.422,411.524z"/>
<path fill="#191F38" d="M234.335,299.278c0,11.502-9.324,20.826-20.827,20.826h-82.105c-11.502,0-20.827-9.324-20.827-20.826l0,0
	c0-11.5,9.325-20.824,20.827-20.824h82.105C225.011,278.454,234.335,287.778,234.335,299.278L234.335,299.278z"/>
<path fill="#16254D" d="M215.866,99.299c0,0-3.611-8.98-1.806-17.409c1.806-8.432,11.199-22.729,11.922-33.525
	c0.723-10.8-5.295-21.881-11.922-27.06c0,0,0.842-6.383-6.868-13.852c-7.709-7.467-19.32-8.19-24.355-6.985
	c-5.033,1.205-23.341,14.694-35.385,15.896c-12.045,1.205-36.616,2.169-53.72,10.36c-17.103,8.19-36.615,15.898-50.587,35.651
	C29.175,82.13,22.67,100.919,26.284,123.081c3.614,22.16,13.731,39.986,30.11,52.032c16.381,12.046,38.061,25.775,59.018,21.199
	c20.959-4.577,32.514-16.863,44.081-30.354C171.059,152.47,215.866,99.299,215.866,99.299z"/>
<path fill="#E5BDBB" d="M230.095,111.759c4.262,6.702,9.614,22.399,9.618,29.148c0.008,14.212-4.806,24.812-4.806,24.812h-7.961
	l-18.309-13.01l-5.525-42.637l6.97-13.489C210.083,96.583,223.814,101.882,230.095,111.759z"/>
<path fill="#8793C9" d="M207.753,389.588c0,0,4.897,11.721,7.788,14.372c2.892,2.65,5.943,6.585,7.39,6.104
	c1.444-0.483,9.394-14.296,16.62-24.01c7.227-9.715,24.975-35.253,35.575-48.421c10.6-13.167,22.801-32.114,27.941-41.75
	c5.139-9.636,0.963-22.481-3.854-26.98c-4.82-4.498-25.053-17.666-39.83-24.733c-14.773-7.063-30.511-13.89-35.331-16.419
	c-4.817-2.528-5.459-6.709-4.814-14.094c0.64-7.386-19.273-1.604-19.273-1.604l-11.563,5.684v35.104l39.828,26.981l29.55,15.739
	l-29.872,45.608l-15.739,40.79L207.753,389.588z"/>
<linearGradient id="SVGID_4_" gradientUnits="userSpaceOnUse" x1="169.5806" y1="428.4551" x2="212.3477" y2="428.4551">
	<stop  offset="0" style="stop-color:#8162AA"/>
	<stop  offset="1" style="stop-color:#C860A5"/>
</linearGradient>
<path fill="url(#SVGID_4_)" d="M181.177,394.084c0,0-11.081,5.54-11.563,8.431c-0.481,2.892,4.335,16.62,11.563,29.63
	c7.226,13.006,12.045,20.476,16.621,25.294c4.577,4.817,11.401,8.029,13.491,2.409c1.741-4.693,1.042-8.512,0-16.863
	c-0.754-6.018-4.543-21.198-8.175-30.594c0,0,2.152,16.674-1.702,16.046c-3.854-0.63-8.435-3.52-13.01-11.469
	C183.827,409.02,181.177,394.084,181.177,394.084z"/>
<path fill="#A5A9D5" d="M145.365,217.736c0,0-18.95,20.012-21.199,34.144c-2.249,14.133,0,32.119,15.417,41.113
	c15.416,8.992,45.61,14.131,61.026,13.489c15.418-0.643,30.866-3.212,30.866-3.212s-15.771,13.169-22.837,21.841
	c-7.064,8.672-17.664,27.302-20.556,41.433c-2.89,14.132-3.211,27.945-1.284,33.404s12.524,14.771,14.452,13.807
	c1.925-0.963,13.489-25.693,20.556-35.33c7.066-9.635,18.305-26.016,26.659-35.65c8.352-9.636,26.66-27.943,30.832-37.258
	c4.178-9.314,5.141-22.162,0-28.265c-5.137-6.104-18.951-14.132-30.832-18.95c-11.883-4.818-38.35-10.6-45.352-14.775
	c-7.001-4.176-11.177-8.674-7.645-16.703l-5.781-4.495l-32.438-4.592H145.365z"/>
<linearGradient id="SVGID_5_" gradientUnits="userSpaceOnUse" x1="182.8384" y1="227.75" x2="182.8384" y2="89.8301">
	<stop  offset="0" style="stop-color:#9961A8"/>
	<stop  offset="1" style="stop-color:#C860A5"/>
</linearGradient>
<path fill="url(#SVGID_5_)" d="M134.202,147.651c0,0,11.082,19.512,12.527,32.277c1.444,12.77,0,39.51,0,39.51
	s24.812,10.357,45.77,7.948c20.959-2.409,26.739-13.73,26.739-13.73s-4.096-29.63,4.576-44.325
	c8.672-14.693,8.709-27.461,6.281-35.891c-2.427-8.433-13.022-23.474-16.035-34.142l-14.095-8.497l-11.324,4.336l-11.079-0.724
	l-14.344-4.584c0,0-7.335,3.62-12.153,6.271c-4.818,2.652-11.082,5.541-11.082,5.541l2.41,22.645L134.202,147.651z"/>
<path fill="#E5BDBB" d="M110.355,136.573c5.781-14.775,19.91-37.904,28.263-37.262c8.352,0.646,13.491,15.42,9.635,28.267
	c-3.854,12.847-16.042,34.689-18.3,40.47c-2.255,5.781-11.89,17.345-8.036,21.199c3.854,3.854,21.84,2.568,34.689,0
	c12.846-2.568,34.686-2.568,37.898-3.854c3.212-1.285,27.624-13.335,27.624-13.335l26.336,10.766l-22.483,13.49h-22.484
	c0,0,1.284-1.927-5.139,0c-6.423,1.927-20.189,8.366-28.907,10.919c-8.513,2.493-29.792,9.56-38.624,10.202
	c-8.832,0.643-26.417,0.8-30.43-5.302c-4.016-6.102-6.666-13.653-0.562-39.026C105.939,147.734,110.355,136.573,110.355,136.573z"/>
<linearGradient id="SVGID_6_" gradientUnits="userSpaceOnUse" x1="180.8511" y1="105.7461" x2="180.8511" y2="64.3076">
	<stop  offset="0" style="stop-color:#E5BDBB"/>
	<stop  offset="1" style="stop-color:#CFB7B8"/>
</linearGradient>
<path fill="url(#SVGID_6_)" d="M159.493,92.251c0,0,3.87,8.352,12.854,11.241c8.984,2.892,16.374,3.534,21.833-1.284
	c5.459-4.818,8.029-9.957,8.029-9.957s-5.454-2.491-7.664-4.701c-1.807-1.808-3.257-5.897-2.936-11.036
	c0.321-5.14,3.417-11.245,3.417-11.245l-28.469-0.961c0,0,1.928,10.598,1.286,15.416C167.201,84.543,164.632,90.324,159.493,92.251z
	"/>
<path fill="#E5BDBB" d="M205.525,65.242c2.988-3.83,8.409-13.603,8.533-23.989c0.125-10.389-3.958-20.033-5.813-21.396
	c0,0-4.7,7.422-15.089,6.804c-10.386-0.616-18.051-5.069-21.391-3.833c-3.339,1.237-8.038,7.171-9.275,12.49
	c-1.237,5.316-0.743,18.423,2.351,25.599c3.963,9.199,15.638,14.017,22.227,14.47C196.127,76.002,202.535,69.071,205.525,65.242z"/>
<g>
	<path fill="#191F38" d="M301.408,100.548l105.912,1.805c0,0,3.93-0.34,5.125,1.655c0.865,1.437,0.855,3.929-3.246,13.56
		c-3,7.043-28.893,75.566-28.893,75.566l-94.199-1.711l-15.045,0.514"/>
	
		<ellipse transform="matrix(-0.9629 -0.2698 0.2698 -0.9629 632.4177 384.9757)" fill="#FFFFFF" cx="342.666" cy="149.025" rx="9.574" ry="9.803"/>
	<path fill="#2C344F" d="M271.062,199.524l-8.615-3.021l32.121-92.168c0,0,2.908-5.504,10.879-3.434L271.062,199.524z"/>
	<path fill="#2C344F" d="M270.039,190.396v9.128h104.283c0,0,6.158-0.922,6.84-9.128H270.039z"/>
	<path fill="#526991" d="M276.137,190.396h-66.564c-5.015,0-5.583,4.104-5.583,5.243c0,1.141,0.458,4.216,5.812,4.33
		c5.357,0.115,56.303,0,56.303,0S277.729,201.908,276.137,190.396z"/>
</g>
<path fill="#191F38" d="M480,205.272c0,3.9-3.182,7.066-7.105,7.066H187.871c-3.925,0-7.107-3.166-7.107-7.066l0,0
	c0-3.902,3.182-7.066,7.107-7.066h285.023C476.818,198.206,480,201.37,480,205.272L480,205.272z"/>
<path fill="#191F38" d="M336.055,410.988c0,3.135-2.541,5.673-5.672,5.673l0,0c-3.135,0-5.674-2.538-5.674-5.673V208.371
	c0-3.132,2.539-5.673,5.674-5.673l0,0c3.131,0,5.672,2.541,5.672,5.673V410.988z"/>
<path fill="#191F38" d="M118.978,411.524c-0.866,1.379-3.302,1.413-5.436,0.069l0,0c-2.136-1.342-3.168-3.544-2.302-4.923
	l57.629-91.867c0.865-1.379,3.3-1.412,5.438-0.07l0,0c2.136,1.338,3.167,3.547,2.301,4.927L118.978,411.524z"/>
</svg>
