<?xml version="1.0" encoding="utf-8"?>
<!-- Generator: Adobe Illustrator 16.0.0, SVG Export Plug-In . SVG Version: 6.00 Build 0)  -->
<!DOCTYPE svg PUBLIC "-//W3C//DTD SVG 1.1//EN" "http://www.w3.org/Graphics/SVG/1.1/DTD/svg11.dtd">
<svg version="1.1" id="Layer_1" xmlns="http://www.w3.org/2000/svg" xmlns:xlink="http://www.w3.org/1999/xlink" x="0px" y="0px"
	 width="1526px" height="3031.333px" viewBox="0 0 1526 3031.333" enable-background="new 0 0 1526 3031.333" xml:space="preserve">
<path fill="#F2F2F9" d="M1.944,57.22c0,0,166.2-103.967,332.015-23.967c174.52,84.203,92.062,209.797,217.699,319.283
	s458.018,93.248,649.977,161.41c191.959,68.16,362.479,215.141,316.913,494.693c-47.613,292.107-306.012,554.506-463.036,559.295
	c-157.023,4.789-281.893-191.157-562.594-193.616c-248.089-2.174-387.122,90.611-431.843,201.334
	c-49.497,131.992,22.499,233.988,158.992,385.48s493.476,73.496,653.967,77.996c148.503,4.164,302.884,104.861,334.483,265.486
	c35.998,182.99-41.495,458.834-754.463,403.48C-28.921,2670.6,0.04,3059.08,0.04,3059.08L1.944,57.22z"/>
</svg>
